<svg 
xmlns="http://www.w3.org/2000/svg" 
xmlns:xlink="http://www.w3.org/1999/xlink" 
id="svg" version="1.1" 
width="171" 
height="31" 
viewBox="0, 0, 400,225">
<g id="svgg">
<path 
id="path0" 
d="M126.699 100.345 
C 121.001 101.085,115.901 105.772,114.917 111.174 
C 114.807 111.779,117.648 114.645,118.182 114.467 
C 118.283 114.433,119.246 112.833,120.321 110.911 
C 121.396 108.989,122.378 107.417,122.504 107.417 
C 122.629 107.417,123.854 109.389,125.226 111.799 
C 126.597 114.209,127.777 116.121,127.848 116.049 
C 127.918 115.976,128.771 113.779,129.744 111.167 
C 131.989 105.133,131.838 105.500,132.087 105.500 
C 132.205 105.500,133.360 107.597,134.654 110.159 
C 135.948 112.722,137.067 114.855,137.140 114.900 
C 137.317 115.010,142.171 112.348,142.272 112.086 
C 142.411 111.725,141.853 109.687,141.270 108.427 
C 138.657 102.769,132.847 99.547,126.699 100.345 M149.167 101.060 
C 149.167 101.538,149.232 101.565,151.054 101.847 
C 151.776 101.959,152.519 102.180,152.718 102.341 
L 153.078 102.633 153.081 113.311 
C 153.084 125.594,153.278 124.388,151.231 124.773 
C 150.508 124.909,149.748 125.055,149.542 125.097 
C 149.274 125.151,149.167 125.291,149.167 125.587 
L 149.167 126.000 155.879 126.000 
C 163.034 126.000,164.615 125.889,166.638 125.247 
C 173.018 123.222,172.823 115.590,166.335 113.407 
C 165.041 112.972,164.909 112.678,165.827 112.273 
C 170.064 110.404,170.588 103.758,166.658 101.749 
C 164.841 100.820,164.495 100.785,156.542 100.711 
L 149.167 100.642 149.167 101.060 M163.688 102.712 
C 165.484 103.530,166.083 104.603,166.083 107.000 
C 166.083 111.070,164.493 112.221,158.995 112.129 
L 156.250 112.083 156.206 107.419 
C 156.181 104.853,156.200 102.653,156.248 102.529 
C 156.384 102.175,162.858 102.335,163.688 102.712 M219.917 105.415 
C 219.825 105.446,219.544 105.516,219.292 105.572 
L 218.833 105.673 218.833 107.410 
C 218.833 109.330,218.846 109.308,217.688 109.445 
C 216.030 109.642,215.818 110.553,217.411 110.634 
C 218.931 110.712,218.833 110.292,218.833 116.744 
C 218.833 123.956,219.030 124.753,221.052 125.742 
C 223.075 126.732,227.833 125.901,227.833 124.558 
C 227.833 124.148,227.798 124.129,227.208 124.230 
C 223.986 124.780,222.367 124.220,221.830 122.367 
C 221.714 121.966,221.668 119.822,221.700 116.250 
L 221.750 110.750 224.858 110.705 
L 227.966 110.659 228.073 110.232 
C 228.325 109.226,228.262 109.205,225.265 109.296 
C 223.765 109.342,222.342 109.330,222.102 109.270 
L 221.667 109.160 221.667 107.247 
L 221.667 105.333 220.875 105.346 
C 220.440 105.354,220.008 105.385,219.917 105.415 M177.333 109.349 
C 174.809 109.734,174.797 109.738,174.863 110.208 
C 174.910 110.534,175.068 110.608,176.061 110.771 
C 177.585 111.021,177.495 110.580,177.497 117.799 
L 177.500 124.182 177.110 124.572 
C 176.896 124.786,176.412 125.014,176.036 125.077 
C 175.321 125.198,174.896 125.530,175.079 125.826 
C 175.232 126.073,183.274 126.065,183.427 125.817 
C 183.628 125.492,183.108 125.216,181.945 125.032 
C 180.212 124.759,180.333 125.174,180.333 119.495 
L 180.333 114.531 181.176 113.773 
C 182.516 112.569,183.619 112.129,185.534 112.035 
L 187.151 111.956 187.200 111.103 
L 187.250 110.250 188.048 110.261 
C 189.166 110.276,189.027 110.061,193.064 118.083 
C 197.180 126.265,196.896 125.304,195.882 127.617 
C 194.583 130.586,193.653 131.272,191.636 130.755 
C 191.075 130.612,190.601 130.514,190.581 130.539 
C 189.133 132.337,191.385 134.102,193.750 133.021 
C 195.432 132.253,195.630 131.897,201.086 119.835 
C 205.493 110.091,205.339 110.390,206.012 110.261 
C 206.281 110.209,206.725 110.123,207.000 110.070 
C 207.348 110.003,207.500 109.877,207.500 109.653 
C 207.500 109.276,200.305 109.142,200.074 109.515 
C 199.879 109.831,200.241 110.002,201.410 110.143 
C 203.475 110.391,203.501 110.151,200.711 116.583 
C 198.563 121.534,198.300 122.034,197.999 121.733 
C 197.742 121.475,193.157 111.660,193.054 111.146 
C 192.931 110.532,193.447 110.232,194.875 110.087 
C 195.823 109.991,196.000 109.924,196.000 109.661 
C 196.000 109.365,195.755 109.344,191.458 109.258 
C 188.960 109.208,186.502 109.152,185.995 109.134 
C 184.423 109.078,182.364 110.442,180.970 112.462 
C 180.304 113.427,180.167 113.248,180.167 111.418 
C 180.167 109.785,179.989 108.989,179.629 109.015 
C 179.512 109.024,178.479 109.174,177.333 109.349 M235.763 109.177 
C 233.950 109.480,231.667 110.405,231.667 110.836 
C 231.667 111.404,232.357 114.585,232.516 114.746 
C 232.833 115.069,233.210 114.567,233.492 113.449 
C 234.030 111.310,234.798 110.750,237.194 110.750 
C 239.976 110.750,241.167 112.059,241.167 115.117 
C 241.167 117.000,241.370 116.863,238.000 117.247 
C 232.409 117.883,230.514 119.108,230.504 122.095 
C 230.487 126.593,236.342 127.771,240.192 124.045 
C 241.129 123.138,241.333 123.219,241.333 124.498 
C 241.333 126.071,241.784 126.287,244.496 126.008 
C 245.434 125.912,246.307 125.833,246.434 125.833 
C 247.060 125.833,246.668 125.013,245.958 124.837 
C 245.569 124.740,245.025 124.603,244.750 124.533 
L 244.250 124.405 244.154 118.911 
C 244.099 115.786,243.983 113.197,243.883 112.907 
C 242.872 109.959,239.724 108.513,235.763 109.177 M132.195 112.348 
C 132.112 112.569,131.277 114.813,130.340 117.333 C 129.402 119.854,128.534 122.022,128.411 122.151 
C 128.147 122.426,128.412 122.834,125.078 117.006 C 123.791 114.757,122.642 112.917,122.523 112.917 
C 122.404 112.917,121.582 114.210,120.696 115.792 C 119.711 117.551,118.988 118.667,118.832 118.667 
C 118.693 118.667,117.717 117.908,116.664 116.981 C 114.450 115.033,114.366 115.061,114.990 117.542 
C 118.710 132.333,140.077 131.165,142.420 116.042 C 142.561 115.131,142.771 115.067,139.205 117.016 
C 136.664 118.404,136.090 118.659,135.919 118.474 C 135.805 118.351,135.021 116.900,134.177 115.250 
C 132.434 111.842,132.402 111.796,132.195 112.348 M162.474 114.007 C 166.078 114.459,167.833 116.121,167.833 119.083 
C 167.833 121.532,166.742 123.075,164.417 123.912 C 163.170 124.361,156.859 124.502,156.447 124.090 
C 156.081 123.724,156.013 114.090,156.375 113.944 C 156.762 113.788,161.082 113.832,162.474 114.007 M241.130 120.128 
L 241.178 122.007 240.547 122.591 C 238.558 124.432,235.248 124.840,233.899 123.410 
C 232.523 121.950,233.265 119.771,235.380 119.067 C 236.369 118.738,239.829 118.174,240.583 118.220 
L 241.083 118.250 241.130 120.128 " 
stroke="none" fill="#fca336" fill-rule="evenodd"/>
<path id="path1" d="M0.000 112.500 L 0.000 225.000 200.000 225.000 L 400.000 225.000 400.000 112.500 L 400.000 0.000 200.000 0.000 L 0.000 0.000 0.000 112.500 M132.198 100.315 C 137.253 101.628,141.622 106.186,142.526 111.088 C 142.681 111.933,142.678 112.202,142.509 112.406 C 142.233 112.738,137.439 115.333,137.101 115.333 C 136.931 115.333,136.065 113.779,134.547 110.750 C 133.284 108.230,132.186 106.189,132.107 106.215 C 132.028 106.241,131.111 108.541,130.069 111.327 C 129.028 114.112,128.098 116.469,128.003 116.563 C 127.726 116.841,127.499 116.506,125.032 112.174 C 123.756 109.932,122.634 108.073,122.540 108.041 C 122.447 108.010,121.486 109.563,120.405 111.492 C 118.271 115.303,118.328 115.248,117.384 114.458 C 114.143 111.749,114.232 111.931,115.007 109.618 C 117.380 102.537,124.960 98.435,132.198 100.315 M164.202 100.574 C 170.378 101.675,171.877 109.157,166.547 112.280 C 165.866 112.679,165.740 113.000,166.263 113.000 C 166.397 113.000,167.012 113.243,167.629 113.539 C 173.380 116.303,172.852 123.661,166.763 125.595 C 164.110 126.437,149.244 126.768,148.830 125.994 C 148.387 125.166,148.848 124.807,150.750 124.500 C 151.483 124.382,152.215 124.218,152.375 124.136 C 152.648 123.998,152.667 123.313,152.667 113.333 C 152.667 103.353,152.648 102.669,152.375 102.530 C 152.215 102.449,151.483 102.285,150.750 102.167 C 148.848 101.859,148.387 101.501,148.830 100.673 C 149.063 100.237,161.851 100.155,164.202 100.574 M156.500 107.232 L 156.500 111.833 159.075 111.833 C 164.072 111.833,165.577 110.844,165.797 107.413 C 166.029 103.797,164.752 102.808,159.708 102.700 L 156.500 102.631 156.500 107.232 M222.000 107.000 L 222.083 108.917 225.083 108.917 C 228.432 108.917,228.500 108.935,228.500 109.811 C 228.500 110.970,228.442 110.990,225.083 111.039 L 222.083 111.083 222.083 116.667 C 222.083 124.078,222.077 124.067,226.000 123.969 L 228.083 123.917 228.135 124.538 C 228.269 126.161,223.283 127.248,220.948 126.106 C 218.674 124.993,218.451 124.198,218.368 116.882 L 218.301 111.015 217.192 110.966 L 216.083 110.917 216.103 110.280 C 216.129 109.460,216.264 109.342,217.441 109.109 L 218.417 108.917 218.465 107.252 C 218.526 105.149,218.699 104.993,220.917 105.055 L 221.917 105.083 222.000 107.000 M180.188 108.941 C 180.330 109.112,180.448 109.812,180.500 110.791 L 180.583 112.365 181.162 111.591 C 182.443 109.878,184.407 108.742,185.998 108.793 C 186.595 108.813,189.146 108.886,191.667 108.956 L 196.250 109.083 196.306 109.575 C 196.383 110.250,195.979 110.500,194.813 110.500 C 193.637 110.500,193.259 110.781,193.516 111.464 C 193.895 112.468,198.059 121.167,198.162 121.167 C 198.305 121.167,198.446 120.862,200.643 115.816 C 202.909 110.608,202.922 110.503,201.278 110.498 C 199.936 110.493,199.276 109.921,199.835 109.248 C 200.200 108.808,207.594 108.887,207.833 109.333 C 208.066 109.768,207.790 110.304,207.287 110.399 C 207.083 110.437,206.619 110.531,206.255 110.609 L 205.594 110.750 201.329 120.167 C 196.286 131.301,196.364 131.145,195.299 132.271 C 192.811 134.902,188.579 133.576,190.096 130.641 C 190.330 130.190,190.419 130.145,190.888 130.241 C 191.179 130.301,191.907 130.391,192.507 130.442 L 193.597 130.534 194.181 129.888 C 194.692 129.322,196.333 125.963,196.333 125.483 C 196.333 124.882,188.931 110.799,188.536 110.649 C 187.801 110.369,187.588 110.514,187.531 111.335 C 187.462 112.328,187.486 112.315,185.577 112.422 C 183.665 112.530,182.707 112.899,181.438 114.016 L 180.667 114.695 180.667 119.518 L 180.667 124.342 181.042 124.482 C 181.248 124.559,181.848 124.675,182.375 124.740 C 183.629 124.894,184.032 125.289,183.732 126.070 C 183.587 126.449,175.154 126.470,174.841 126.093 C 174.433 125.601,174.701 125.099,175.500 124.852 C 175.912 124.725,176.420 124.558,176.627 124.480 L 177.004 124.339 176.960 117.804 L 176.917 111.268 175.779 111.082 C 174.659 110.899,174.341 110.691,174.336 110.137 C 174.331 109.581,174.818 109.372,176.784 109.088 C 177.865 108.932,178.825 108.779,178.917 108.749 C 179.361 108.600,179.983 108.695,180.188 108.941 M239.727 108.915 C 241.727 109.339,243.360 110.631,244.037 112.325 C 244.387 113.202,244.410 113.536,244.465 118.702 L 244.524 124.155 245.509 124.348 C 246.718 124.586,247.042 124.809,247.042 125.400 C 247.042 126.102,246.867 126.173,244.648 126.372 C 241.698 126.638,241.000 126.365,241.000 124.944 C 241.000 123.945,240.886 123.909,240.073 124.659 C 236.156 128.269,230.167 126.712,230.167 122.083 C 230.167 118.946,232.045 117.626,237.500 116.927 C 238.646 116.780,239.865 116.618,240.208 116.566 L 240.833 116.471 240.833 115.309 C 240.833 112.219,239.496 110.824,236.742 111.043 C 234.905 111.189,234.219 111.826,233.766 113.810 C 233.513 114.922,233.331 115.160,232.729 115.164 C 232.131 115.168,231.333 112.695,231.333 110.840 C 231.333 109.467,236.615 108.256,239.727 108.915 M134.367 114.875 C 135.287 116.685,136.124 118.164,136.228 118.161 C 136.332 118.159,137.762 117.416,139.407 116.512 C 143.154 114.452,143.217 114.472,142.499 117.470 C 139.586 129.619,123.669 132.471,116.626 122.106 C 115.020 119.743,113.728 115.168,114.587 114.887 C 114.681 114.856,115.651 115.615,116.742 116.573 C 117.834 117.532,118.784 118.280,118.855 118.237 C 118.925 118.194,119.707 116.846,120.594 115.243 C 121.481 113.640,122.279 112.283,122.369 112.228 C 122.642 112.059,122.882 112.425,125.547 117.083 C 126.963 119.558,128.188 121.561,128.269 121.534 C 128.350 121.507,129.206 119.370,130.170 116.784 C 131.134 114.199,131.978 111.947,132.044 111.779 C 132.313 111.105,132.744 111.679,134.367 114.875 M156.611 114.278 C 156.355 114.534,156.488 123.616,156.751 123.834 C 157.214 124.218,163.173 123.955,164.488 123.493 C 168.566 122.059,168.545 116.101,164.458 114.764 C 163.122 114.327,156.945 113.944,156.611 114.278 M240.167 118.588 C 240.029 118.615,239.242 118.725,238.417 118.831 C 234.707 119.309,233.667 119.961,233.667 121.804 C 233.667 124.337,237.759 124.673,240.292 122.349 L 240.833 121.852 240.833 120.176 C 240.833 118.462,240.831 118.457,240.167 118.588 " stroke="none" fill="#fcfcfb" fill-rule="evenodd"/><path id="path2" d="M129.542 100.115 C 129.702 100.157,129.965 100.157,130.125 100.115 C 130.285 100.073,130.154 100.039,129.833 100.039 C 129.512 100.039,129.381 100.073,129.542 100.115 M152.469 100.458 C 154.240 100.485,157.090 100.485,158.803 100.458 C 160.515 100.431,159.067 100.409,155.583 100.409 C 152.100 100.409,150.699 100.431,152.469 100.458 M148.944 100.611 C 148.793 100.762,148.803 101.462,148.958 101.558 C 149.027 101.600,149.083 101.379,149.083 101.067 C 149.083 100.755,149.077 100.500,149.069 100.500 C 149.062 100.500,149.006 100.550,148.944 100.611 M167.917 102.500 C 168.275 102.867,168.605 103.167,168.651 103.167 C 168.697 103.167,168.441 102.867,168.083 102.500 C 167.725 102.133,167.395 101.833,167.349 101.833 C 167.303 101.833,167.559 102.133,167.917 102.500 M152.912 113.333 C 152.912 118.971,152.933 121.277,152.958 118.458 C 152.984 115.640,152.984 111.027,152.958 108.208 C 152.933 105.390,152.912 107.696,152.912 113.333 M131.902 105.856 C 131.829 105.976,131.854 106.007,131.967 105.937 C 132.075 105.870,132.262 106.035,132.414 106.328 C 132.558 106.606,132.713 106.833,132.759 106.833 C 132.881 106.833,132.363 105.871,132.179 105.758 C 132.093 105.705,131.969 105.749,131.902 105.856 M169.545 106.833 C 169.545 107.246,169.578 107.415,169.618 107.208 C 169.657 107.002,169.657 106.665,169.618 106.458 C 169.578 106.252,169.545 106.421,169.545 106.833 M221.979 109.046 C 222.051 109.118,223.228 109.155,224.596 109.129 L 227.083 109.082 224.466 108.999 C 223.027 108.954,221.908 108.975,221.979 109.046 M189.365 109.124 C 190.529 109.153,192.479 109.153,193.698 109.125 C 194.918 109.096,193.967 109.073,191.583 109.073 C 189.200 109.073,188.202 109.096,189.365 109.124 M202.042 109.124 C 203.027 109.154,204.640 109.154,205.625 109.124 C 206.610 109.095,205.804 109.071,203.833 109.071 C 201.862 109.071,201.056 109.095,202.042 109.124 M207.627 109.587 C 207.687 109.902,207.614 110.033,207.311 110.154 C 207.082 110.246,207.025 110.317,207.175 110.323 C 207.681 110.343,208.087 109.510,207.691 109.265 C 207.612 109.216,207.583 109.361,207.627 109.587 M187.379 111.167 C 187.379 111.579,187.411 111.748,187.451 111.542 C 187.491 111.335,187.491 110.998,187.451 110.792 C 187.411 110.585,187.379 110.754,187.379 111.167 M217.580 110.953 L 218.496 111.017 218.543 116.467 L 218.590 121.917 218.587 116.417 L 218.583 110.917 217.624 110.903 L 216.665 110.889 217.580 110.953 M221.942 110.958 C 221.899 111.027,222.739 111.064,223.807 111.040 C 227.392 110.959,227.772 110.898,224.885 110.865 C 223.309 110.848,221.985 110.890,221.942 110.958 M177.242 117.750 C 177.242 121.325,177.265 122.764,177.291 120.947 C 177.318 119.131,177.318 116.206,177.291 114.447 C 177.264 112.689,177.242 114.175,177.242 117.750 M157.542 112.123 C 158.069 112.156,158.931 112.156,159.458 112.123 C 159.985 112.090,159.554 112.063,158.500 112.063 C 157.446 112.063,157.015 112.090,157.542 112.123 M185.129 112.289 C 185.521 112.324,186.121 112.324,186.463 112.288 C 186.804 112.252,186.483 112.223,185.750 112.224 C 185.017 112.224,184.737 112.254,185.129 112.289 M117.487 114.375 C 117.953 114.903,118.199 114.946,118.521 114.557 C 118.730 114.304,118.718 114.300,118.382 114.509 C 118.052 114.714,117.966 114.695,117.549 114.327 L 117.083 113.917 117.487 114.375 M156.442 114.125 C 156.399 114.194,157.163 114.230,158.140 114.206 C 161.418 114.125,161.770 114.063,159.135 114.032 C 157.696 114.014,156.485 114.056,156.442 114.125 M166.333 115.750 C 166.644 116.071,166.936 116.333,166.982 116.333 C 167.028 116.333,166.811 116.071,166.500 115.750 C 166.189 115.429,165.897 115.167,165.851 115.167 C 165.805 115.167,166.022 115.429,166.333 115.750 M115.333 115.552 C 115.333 115.581,115.577 115.825,115.875 116.094 L 116.417 116.583 115.927 116.042 C 115.471 115.537,115.333 115.423,115.333 115.552 M118.417 124.167 C 118.775 124.533,119.105 124.833,119.151 124.833 C 119.197 124.833,118.941 124.533,118.583 124.167 
C 118.225 123.800,117.895 123.500,117.849 123.500 
C 117.803 123.500,118.059 123.800,118.417 124.167 
M240.075 124.375 L 239.417 125.083 240.090 124.458 
C 240.911 123.697,240.961 123.693,241.046 124.375 
C 241.112 124.908,241.114 124.907,241.140 124.292 
C 241.175 123.464,240.903 123.485,240.075 124.375 
M235.877 124.120 C 236.131 124.158,236.506 124.157,236.711 124.117 
C 236.916 124.078,236.708 124.046,236.250 124.048 C 235.792 124.049,235.624 124.081,235.877 124.120 M224.795 124.287 
C 225.094 124.325,225.544 124.324,225.795 124.286 C 226.045 124.248,225.800 124.217,225.250 124.218 
C 224.700 124.219,224.495 124.250,224.795 124.287 M148.944 125.111 C 148.793 125.262,148.803 125.962,148.958 126.058 
C 149.027 126.100,149.083 125.879,149.083 125.567 C 149.083 125.255,149.077 125.000,149.069 125.000 
C 149.062 125.000,149.006 125.050,148.944 125.111 M152.553 126.291 C 154.277 126.319,157.052 126.319,158.719 126.291 
C 160.386 126.264,158.975 126.242,155.583 126.242 C 152.192 126.242,150.828 126.264,152.553 126.291 M177.301 126.291 
C 178.429 126.320,180.229 126.320,181.301 126.291 C 182.373 126.262,181.450 126.238,179.250 126.239 
C 177.050 126.239,176.173 126.262,177.301 126.291 M243.794 126.285 C 244.001 126.324,244.301 126.323,244.460 126.281 
C 244.620 126.239,244.450 126.207,244.083 126.209 C 243.717 126.211,243.586 126.245,243.794 126.285 M222.961 126.454 
C 223.261 126.491,223.711 126.490,223.961 126.452 C 224.212 126.414,223.967 126.384,223.417 126.385 
C 222.867 126.386,222.662 126.417,222.961 126.454 M129.875 128.282 C 130.035 128.323,130.298 128.323,130.458 128.282 
C 130.619 128.240,130.487 128.205,130.167 128.205 C 129.846 128.205,129.715 128.240,129.875 128.282 M191.875 133.615 
C 192.035 133.657,192.298 133.657,192.458 133.615 C 192.619 133.573,192.487 133.539,192.167 133.539 
C 191.846 133.539,191.715 133.573,191.875 133.615 " stroke="none" fill="#fcd7ab" fill-rule="evenodd"/>
<path id="path3" 
d="M127.958 99.955 C 128.348 99.990,128.985 99.990,129.375 99.955 C 129.765 99.920,129.446 99.892,128.667 99.892 
C 127.888 99.892,127.569 99.920,127.958 99.955 M133.161 100.751 C 133.753 100.971,134.265 101.124,134.297 101.092 
C 134.376 101.013,132.544 100.331,132.285 100.342 C 132.174 100.347,132.568 100.531,133.161 100.751 M162.125 100.451 
C 162.331 100.491,162.669 100.491,162.875 100.451 C 163.081 100.411,162.912 100.379,162.500 100.379 
C 162.087 100.379,161.919 100.411,162.125 100.451 M123.583 100.744 C 122.940 101.039,123.239 101.043,124.000 100.750 
C 124.321 100.626,124.471 100.523,124.333 100.520 C 124.196 100.517,123.858 100.618,123.583 100.744 M164.833 100.833 
C 165.403 101.016,165.841 101.016,165.417 100.833 C 165.233 100.755,164.933 100.692,164.750 100.695 
C 164.482 100.699,164.498 100.726,164.833 100.833 M122.125 101.345 C 121.781 101.526,121.500 101.712,121.500 101.757 
C 121.500 101.832,122.816 101.216,122.986 101.063 C 123.178 100.889,122.677 101.053,122.125 101.345 M165.847 101.063
 C 166.018 101.217,167.333 101.831,167.333 101.757 C 167.333 101.662,166.076 101.000,165.896 101.000 
 C 165.831 101.000,165.809 101.028,165.847 101.063 M149.074 101.738 C 149.251 101.882,149.589 101.992,149.824 101.983 
 C 150.216 101.967,150.209 101.956,149.735 101.843 C 149.452 101.775,149.115 101.665,148.985 101.598 
 C 148.856 101.530,148.896 101.593,149.074 101.738 M135.500 101.716 C 135.500 101.750,135.885 102.026,136.355 102.331 
 C 138.281 103.580,140.023 105.524,141.200 107.740 C 141.909 109.075,142.064 109.112,141.394 107.786 
 C 140.459 105.935,138.920 104.102,137.167 102.755 C 136.285 102.078,135.500 101.588,135.500 101.716 M120.573 102.292 
 C 118.836 103.468,117.196 105.167,116.355 106.664 C 115.787 107.674,116.037 107.466,116.719 106.361 
 C 117.452 105.175,119.236 103.346,120.441 102.545 C 121.215 102.031,121.454 101.831,121.292 101.834 
 C 121.269 101.834,120.946 102.041,120.573 102.292 M168.000 102.417 C 168.311 102.737,168.603 103.000,168.649 103.000 
 C 168.695 103.000,168.478 102.737,168.167 102.417 C 167.856 102.096,167.564 101.833,167.518 101.833 
 C 167.472 101.833,167.689 102.096,168.000 102.417 M151.672 102.320 C 151.996 102.384,152.353 102.492,152.464 102.561 
 C 152.836 102.791,152.749 123.936,152.375 124.153 C 152.215 124.247,152.162 124.325,152.258 124.328 
 C 152.818 124.344,152.833 124.043,152.833 113.309 L 152.833 102.686 152.463 102.426 C 152.259 102.283,151.865 102.175,151.588 102.186 
 C 151.092 102.205,151.093 102.207,151.672 102.320 M156.409 102.711 C 156.364 102.827,156.348 104.946,156.372 107.419 
 L 156.417 111.917 159.083 111.923 L 161.750 111.929 159.125 111.877 L 156.500 111.825 156.500 107.250 L 156.500 102.675 159.125 102.625 
 L 161.750 102.574 159.120 102.537 C 157.125 102.509,156.470 102.551,156.409 102.711 M168.949 103.748 
 C 169.102 104.068,169.256 104.300,169.292 104.263 C 169.368 104.187,168.862 103.167,168.748 103.167 
 C 168.706 103.167,168.797 103.428,168.949 103.748 M164.333 103.385 C 164.333 103.414,164.577 103.658,164.875 103.927 
 L 165.417 104.417 164.927 103.875 C 164.471 103.370,164.333 103.257,164.333 103.385 M220.042 105.115 
 C 220.202 105.157,220.465 105.157,220.625 105.115 C 220.785 105.073,220.654 105.039,220.333 105.039 
 C 220.012 105.039,219.881 105.073,220.042 105.115 M221.662 105.110 C 221.763 105.160,221.833 105.934,221.833 107.004 
 C 221.833 107.999,221.890 108.849,221.958 108.891 C 222.027 108.934,222.046 108.101,222.000 107.040 
 C 221.941 105.663,221.856 105.098,221.704 105.067 C 221.587 105.044,221.569 105.063,221.662 105.110 M218.581 105.542 
 C 218.539 105.656,218.486 106.459,218.461 107.326 C 218.418 108.849,218.403 108.906,218.000 109.018 
 C 217.632 109.120,217.625 109.135,217.938 109.150 C 218.517 109.177,218.640 108.834,218.696 107.039 
 C 218.749 105.362,218.731 105.127,218.581 105.542 M165.881 106.917 C 165.882 107.375,165.915 107.543,165.953 107.289 
 C 165.991 107.036,165.990 106.661,165.951 106.456 C 165.911 106.251,165.880 106.458,165.881 106.917 M131.519 107.019 
 C 131.416 107.313,131.361 107.583,131.397 107.619 C 131.432 107.655,131.545 107.443,131.648 107.148 
 C 131.751 106.854,131.806 106.583,131.770 106.548 C 131.734 106.512,131.621 106.724,131.519 107.019 M134.670 111.000 
 C 136.063 113.774,136.936 115.333,137.097 115.333 C 137.372 115.333,138.667 114.709,138.667 114.577 
 C 138.667 114.531,138.359 114.650,137.984 114.842 C 136.994 115.346,137.030 115.392,134.753 110.840 
 C 133.605 108.545,132.627 106.667,132.579 106.667 C 132.532 106.667,133.473 108.617,134.670 111.000 M122.235 107.958 
 C 121.693 108.843,120.817 110.500,120.891 110.500 C 120.938 110.500,121.287 109.938,121.667 109.250 
 C 122.423 107.879,122.499 107.826,122.900 108.375 C 123.158 108.728,123.159 108.718,122.916 108.208 
 C 122.623 107.593,122.489 107.543,122.235 107.958 M131.019 108.352 C 130.916 108.646,130.861 108.917,130.897 108.952 
 C 130.932 108.988,131.045 108.776,131.148 108.481 C 131.251 108.187,131.306 107.917,131.270 107.881 
 C 131.234 107.845,131.121 108.057,131.019 108.352 M179.417 108.790 C 179.692 108.830,180.029 108.950,180.167 109.056 
 C 180.384 109.225,180.387 109.212,180.188 108.958 C 180.047 108.778,179.760 108.676,179.438 108.692 
 L 178.917 108.717 179.417 108.790 M185.347 108.727 C 185.385 108.761,185.904 108.828,186.500 108.876 
 C 187.136 108.928,187.446 108.907,187.250 108.827 C 186.928 108.695,185.207 108.605,185.347 108.727 M236.963 108.789 
 C 237.355 108.824,237.955 108.824,238.296 108.788 C 238.637 108.752,238.317 108.723,237.583 108.724 
 C 236.850 108.724,236.571 108.754,236.963 108.789 M123.500 109.500 C 123.687 109.867,123.878 110.167,123.923 110.167 
 C 123.969 110.167,123.854 109.867,123.667 109.500 C 123.480 109.133,123.289 108.833,123.243 108.833 
 C 123.197 108.833,123.313 109.133,123.500 109.500 M165.221 109.679 C 164.953 110.280,164.651 110.623,164.063 110.996 
 C 163.626 111.273,163.347 111.500,163.442 111.500 C 164.083 111.500,165.826 109.516,165.635 109.005 
 C 165.606 108.929,165.420 109.233,165.221 109.679 M178.042 108.948 C 178.202 108.990,178.465 108.990,178.625 108.948 
 C 178.785 108.906,178.654 108.872,178.333 108.872 C 178.012 108.872,177.881 108.906,178.042 108.948 M184.375 109.005 
 C 183.798 109.237,183.931 109.339,184.542 109.133 C 184.840 109.033,185.115 108.924,185.153 108.892 
 C 185.288 108.778,184.744 108.857,184.375 109.005 M227.083 108.988 C 228.218 109.081,228.251 109.096,228.305 109.562 
 C 228.386 110.273,228.198 110.832,227.872 110.846 C 227.658 110.856,227.644 110.884,227.819 110.953 
 C 228.160 111.088,228.500 110.530,228.500 109.835 C 228.500 108.979,228.270 108.829,227.008 108.863 
 L 225.917 108.892 227.083 108.988 M176.875 109.115 C 177.035 109.157,177.298 109.157,177.458 109.115 
 C 177.619 109.073,177.487 109.039,177.167 109.039 C 176.846 109.039,176.715 109.073,176.875 109.115 M199.835 109.248 
 C 199.596 109.537,199.743 110.333,200.037 110.333 C 200.186 110.333,200.185 110.285,200.033 110.133 
 C 199.743 109.843,199.788 109.376,200.125 109.180 C 200.285 109.087,200.332 109.008,200.229 109.005 
 C 200.125 109.002,199.948 109.112,199.835 109.248 M240.167 109.116 C 240.304 109.165,240.735 109.343,241.125 109.510 
 C 241.515 109.678,241.833 109.778,241.833 109.732 C 241.833 109.603,240.444 109.006,240.167 109.017 
 C 239.944 109.025,239.944 109.036,240.167 109.116 M130.436 109.936 C 130.288 110.369,130.196 110.752,130.232 110.787 
 C 130.267 110.823,130.417 110.497,130.564 110.064 C 130.712 109.631,130.804 109.248,130.768 109.213 
 C 130.733 109.177,130.583 109.503,130.436 109.936 M216.458 109.347 C 216.298 109.440,216.168 109.607,216.169 109.717 
 C 216.171 109.860,216.210 109.856,216.308 109.701 C 216.384 109.583,216.664 109.420,216.931 109.341 
 C 217.265 109.241,217.313 109.192,217.083 109.186 C 216.900 109.181,216.619 109.253,216.458 109.347 M174.595 109.595 
 C 174.067 110.123,174.470 111.018,175.220 110.983 C 175.563 110.968,175.560 110.960,175.182 110.855 
 C 174.633 110.701,174.365 110.252,174.600 109.879 C 174.700 109.720,174.962 109.540,175.182 109.479 
 C 175.560 109.373,175.563 109.366,175.220 109.350 C 175.021 109.341,174.739 109.451,174.595 109.595 M180.365 110.994 
 C 180.339 112.444,180.370 112.697,180.552 112.494 C 180.672 112.360,181.291 111.693,181.927 111.012 
 C 182.797 110.081,182.914 109.907,182.400 110.311 C 182.025 110.607,181.462 111.190,181.150 111.607 L 180.583 112.365 180.490 110.807 
 L 180.397 109.250 180.365 110.994 M196.130 110.027 C 196.088 110.152,195.647 110.285,195.071 110.346 L 194.083 110.451 194.926 110.475 
 C 195.728 110.499,196.555 110.166,196.309 109.920 C 196.250 109.861,196.169 109.909,196.130 110.027 M242.690 110.587 
 C 243.115 111.043,243.581 111.642,243.725 111.917 C 243.869 112.192,243.987 112.342,243.987 112.250 
 C 243.989 111.860,243.227 110.856,242.409 110.170 C 242.138 109.942,242.265 110.130,242.690 110.587 M167.583 111.230 
 C 166.942 111.881,166.646 112.251,166.927 112.052 C 167.439 111.688,168.833 110.250,168.833 110.087 
 C 168.833 109.959,168.845 109.948,167.583 111.230 M216.067 110.499 C 216.078 110.768,216.187 110.923,216.378 110.940 
 C 216.565 110.957,216.584 110.938,216.430 110.889 C 216.296 110.847,216.156 110.649,216.119 110.448 
 C 216.063 110.148,216.054 110.157,216.067 110.499 M124.250 110.833 C 124.392 111.108,124.546 111.333,124.592 111.333 
 C 124.638 111.333,124.559 111.108,124.417 110.833 C 124.274 110.558,124.121 110.333,124.075 110.333 
 C 124.029 110.333,124.108 110.558,124.250 110.833 M200.711 110.453 C 200.964 110.491,201.339 110.490,201.544 110.451 
 C 201.749 110.411,201.542 110.380,201.083 110.381 C 200.625 110.382,200.457 110.415,200.711 110.453 M206.542 110.448 
 C 206.702 110.490,206.965 110.490,207.125 110.448 C 207.285 110.406,207.154 110.372,206.833 110.372 
 C 206.512 110.372,206.381 110.406,206.542 110.448 M188.621 110.670 C 188.889 110.778,189.568 111.972,191.080 114.993 
 C 192.228 117.289,193.205 119.167,193.251 119.167 C 193.379 119.167,189.335 111.125,189.040 110.792 
 C 188.898 110.631,188.662 110.505,188.516 110.511 C 188.341 110.518,188.377 110.572,188.621 110.670 M202.316 110.637 
 C 202.480 110.752,202.519 110.989,202.448 111.442 C 202.373 111.924,202.390 112.010,202.518 111.787 
 C 202.751 111.382,202.638 110.624,202.333 110.542 C 202.125 110.486,202.122 110.502,202.316 110.637 M120.333 111.333 
 C 120.146 111.700,120.031 112.000,120.077 112.000 C 120.122 112.000,120.313 111.700,120.500 111.333 
 C 120.687 110.967,120.803 110.667,120.757 110.667 C 120.711 110.667,120.520 110.967,120.333 111.333 M236.708 110.953 
 C 236.960 110.991,237.373 110.991,237.625 110.953 C 237.877 110.915,237.671 110.883,237.167 110.883 
 C 236.662 110.883,236.456 110.915,236.708 110.953 M114.527 111.429 C 114.504 111.862,114.660 112.082,115.542 112.858 
 C 117.369 114.468,117.922 114.924,117.695 114.633 C 117.573 114.477,116.846 113.811,116.079 113.153 
 C 114.981 112.211,114.671 111.846,114.619 111.436 L 114.553 110.917 114.527 111.429 M218.408 116.250
  C 218.408 119.183,218.430 120.360,218.458 118.865 C 218.486 117.369,218.486 114.969,218.458 113.531 
  C 218.430 112.093,218.408 113.317,218.408 116.250 M221.909 111.210 C 221.865 111.326,221.848 113.707,221.873 116.502 
  L 221.917 121.583 222.000 116.292 C 222.046 113.381,222.062 111.000,222.036 111.000 
  C 222.011 111.000,221.953 111.095,221.909 111.210 M235.040 111.332 C 234.475 111.677,233.832 112.568,233.838 113.000 
  C 233.839 113.138,233.977 112.950,234.144 112.583 C 234.504 111.793,234.784 111.538,235.623 111.238 
  C 235.996 111.105,236.115 111.012,235.917 111.008 C 235.733 111.004,235.339 111.150,235.040 111.332 M176.962 117.708 
  C 177.004 123.725,176.985 124.266,176.722 124.458 C 176.565 124.573,176.511 124.667,176.601 124.667 
  C 177.134 124.667,177.167 124.267,177.167 117.717 C 177.167 114.114,177.110 111.167,177.042 111.167 
  C 176.973 111.167,176.937 114.110,176.962 117.708 M193.344 111.333 C 193.347 111.578,193.979 112.854,193.993 112.643 
  C 193.997 112.584,193.852 112.209,193.670 111.810 C 193.489 111.410,193.342 111.196,193.344 111.333 M142.490 111.832 
  C 142.422 112.373,142.306 112.476,140.876 113.262 C 140.028 113.728,139.278 114.172,139.209 114.249 
  C 138.985 114.497,142.073 112.801,142.388 112.503 C 142.588 112.313,142.671 112.048,142.629 111.732 
  C 142.566 111.264,142.562 111.267,142.490 111.832 M131.928 112.042 C 131.614 112.811,131.464 113.333,131.559 113.333 
  C 131.603 113.333,131.764 112.958,131.917 112.500 C 132.232 111.550,132.533 111.442,132.835 112.170 
  C 132.950 112.447,133.114 112.718,133.201 112.771 C 133.287 112.824,133.201 112.560,133.009 112.184 
  C 132.588 111.360,132.226 111.312,131.928 112.042 M239.831 111.918 C 240.495 112.717,240.550 112.769,240.369 112.415 
  C 240.275 112.230,240.022 111.931,239.807 111.749 C 239.430 111.431,239.431 111.437,239.831 111.918 M129.519 112.352 
  C 129.416 112.646,129.361 112.917,129.397 112.952 C 129.432 112.988,129.545 112.776,129.648 112.481 
  C 129.751 112.187,129.806 111.917,129.770 111.881 C 129.734 111.845,129.621 112.057,129.519 112.352 M119.500 112.833 
  C 119.313 113.200,119.197 113.500,119.243 113.500 C 119.289 113.500,119.480 113.200,119.667 112.833 
  C 119.854 112.467,119.969 112.167,119.923 112.167 C 119.878 112.167,119.687 112.467,119.500 112.833 M122.213 112.375 
  C 121.926 112.746,120.641 115.167,120.731 115.167 C 120.779 115.167,121.141 114.568,121.534 113.836 
  C 122.380 112.262,122.614 112.193,123.234 113.333 C 123.733 114.249,124.008 114.492,123.565 113.625 
  C 122.901 112.325,122.522 111.975,122.213 112.375 M202.027 112.590 C 201.748 113.203,201.801 113.334,202.103 112.777 
  C 202.244 112.517,202.328 112.273,202.290 112.235 C 202.252 112.196,202.134 112.357,202.027 112.590 M184.294 112.451 
  C 184.501 112.491,184.801 112.490,184.960 112.448 C 185.120 112.406,184.950 112.374,184.583 112.375 
  C 184.217 112.377,184.086 112.411,184.294 112.451 M204.447 112.924 C 204.055 113.745,204.110 113.885,204.519 113.109 
  C 204.705 112.757,204.828 112.439,204.792 112.403 C 204.756 112.367,204.600 112.602,204.447 112.924 M125.833 113.583 
  C 126.136 114.133,126.459 114.658,126.552 114.750 C 126.645 114.842,126.475 114.467,126.175 113.917 
  C 125.875 113.367,125.552 112.842,125.457 112.750 C 125.361 112.658,125.531 113.033,125.833 113.583 M231.700 113.083 
  C 231.700 113.267,231.760 113.604,231.833 113.833 C 231.939 114.163,231.967 114.181,231.967 113.917 
  C 231.967 113.733,231.907 113.396,231.833 113.167 C 231.728 112.837,231.700 112.819,231.700 113.083 M240.602 113.250
   C 240.739 113.863,240.834 113.996,240.831 113.569 C 240.829 113.394,240.752 113.138,240.659 113.000 
   C 240.536 112.817,240.520 112.885,240.602 113.250 M133.333 113.064 C 133.333 113.243,133.829 114.167,133.925 114.167 
   C 133.971 114.167,133.885 113.923,133.733 113.625 C 133.424 113.017,133.333 112.890,133.333 113.064 M166.644 113.257 
   C 166.953 113.390,167.253 113.497,167.311 113.494 C 167.528 113.482,166.574 113.012,166.333 113.012 
   C 166.196 113.013,166.336 113.123,166.644 113.257 M181.817 113.516 C 180.416 114.503,180.500 114.119,180.500 119.509 
   C 180.500 122.151,180.556 124.348,180.625 124.391 C 180.694 124.434,180.729 122.274,180.704 119.591 
   L 180.657 114.714 181.288 114.149 C 181.636 113.838,182.106 113.456,182.335 113.300 C 182.563 113.145,182.705 113.014,182.650 113.009 
   C 182.595 113.004,182.220 113.232,181.817 113.516 M131.185 114.019 C 131.083 114.313,131.028 114.583,131.063 114.619 
   C 131.099 114.655,131.212 114.443,131.315 114.148 C 131.417 113.854,131.472 113.583,131.437 113.548 
   C 131.401 113.512,131.288 113.724,131.185 114.019 M194.349 113.583 C 194.349 113.675,194.567 114.162,194.833 114.667 
   C 195.100 115.171,195.318 115.508,195.318 115.417 C 195.318 115.325,195.100 114.837,194.833 114.333 
   C 194.567 113.829,194.349 113.492,194.349 113.583 M118.754 114.158 C 118.614 114.429,118.369 114.727,118.208 114.820 
   C 117.965 114.962,117.960 114.991,118.178 114.995 C 118.321 114.998,118.607 114.700,118.813 114.333 
   C 119.019 113.967,119.148 113.667,119.098 113.667 C 119.049 113.667,118.894 113.888,118.754 114.158 M168.500 114.117 
   C 168.729 114.281,169.292 114.751,169.750 115.160 L 170.583 115.904 169.876 115.156 
   C 169.488 114.744,168.925 114.274,168.626 114.113 C 168.102 113.829,168.098 113.829,168.500 114.117 M203.698 114.591 
   C 203.196 115.625,203.252 115.770,203.769 114.775 C 204.000 114.331,204.161 113.939,204.126 113.904 
   C 204.091 113.869,203.899 114.179,203.698 114.591 M233.500 114.272 C 233.500 115.023,232.451 115.300,232.161 114.625 
   C 232.038 114.337,232.010 114.323,232.042 114.565 C 232.143 115.336,233.408 115.342,233.601 114.573 
   C 233.659 114.341,233.660 114.105,233.603 114.048 C 233.547 113.991,233.500 114.092,233.500 114.272 M240.866 115.197 
   C 240.836 116.379,240.805 116.482,240.458 116.549 L 240.083 116.621 240.464 116.644 C 240.959 116.674,241.028 116.451,240.957 115.067
   L 240.899 113.917 240.866 115.197 M244.407 119.083 C 244.407 121.925,244.430 123.111,244.458 121.719 
   C 244.486 120.327,244.486 118.002,244.458 116.552 C 244.430 115.103,244.408 116.242,244.407 119.083 M156.444 114.278
    C 156.180 114.542,156.322 123.632,156.595 123.905 C 156.814 124.124,157.283 124.161,159.470 124.130 
    L 162.083 124.092 159.475 124.042 C 157.524 124.004,156.820 123.934,156.678 123.764 C 156.545 123.604,156.503 122.159,156.537 118.852 
    C 156.562 116.275,156.577 114.167,156.569 114.167 C 156.562 114.167,156.506 114.217,156.444 114.278 M160.955 114.287 
    C 161.250 114.324,161.775 114.324,162.121 114.288 C 162.467 114.252,162.225 114.222,161.583 114.221
     C 160.942 114.221,160.659 114.250,160.955 114.287 M124.213 115.042 C 124.439 115.431,124.866 116.181,125.161 116.708 
     C 125.670 117.615,126.068 118.092,125.649 117.292 C 125.106 116.257,123.961 114.333,123.886 114.333 
     C 123.840 114.333,123.987 114.652,124.213 115.042 M114.401 115.064 C 114.352 115.191,114.341 115.623,114.377 116.023 
     C 114.441 116.742,114.442 116.740,114.471 115.875 C 114.508 114.745,114.426 114.713,116.746 116.750 
     C 118.879 118.623,118.910 118.642,119.069 118.226 C 119.151 118.014,119.125 117.994,118.953 118.136 
     C 118.782 118.279,118.286 117.928,116.746 116.577 C 114.688 114.769,114.549 114.679,114.401 115.064 M141.787 115.190 
     C 141.446 115.365,141.167 115.545,141.167 115.591 C 141.167 115.636,141.468 115.520,141.837 115.332 
     C 142.562 114.962,142.596 114.984,142.718 115.917 C 142.770 116.313,142.789 116.273,142.808 115.726 
     C 142.839 114.881,142.616 114.764,141.787 115.190 M200.860 115.257 C 200.581 115.870,200.634 116.001,200.936 115.444 
     C 201.077 115.183,201.162 114.939,201.123 114.901 C 201.085 114.863,200.967 115.023,200.860 115.257 M126.917 115.500 
     C 127.059 115.775,127.213 116.000,127.259 116.000 C 127.304 116.000,127.226 115.775,127.083 115.500 
     C 126.941 115.225,126.787 115.000,126.741 115.000 C 126.696 115.000,126.774 115.225,126.917 115.500 M128.260 115.746 
     C 127.952 116.553,127.864 116.616,127.500 116.292 C 127.301 116.114,127.299 116.127,127.487 116.375
      C 127.608 116.535,127.778 116.667,127.863 116.667 C 128.035 116.667,128.738 115.183,128.621 115.066 
      C 128.581 115.026,128.419 115.332,128.260 115.746 M166.037 115.661 C 166.450 116.024,166.883 116.552,167.000 116.833 
      C 167.116 117.114,167.244 117.311,167.285 117.271 C 167.513 117.042,165.812 115.000,165.393 115.000 
      C 165.334 115.000,165.624 115.297,166.037 115.661 M120.167 116.000 C 119.980 116.367,119.864 116.667,119.910 116.667
       C 119.956 116.667,120.146 116.367,120.333 116.000 C 120.520 115.633,120.636 115.333,120.590 115.333 
       C 120.544 115.333,120.354 115.633,120.167 116.000 M202.947 116.258 C 202.555 117.079,202.610 117.219,203.019 116.443 
       C 203.205 116.090,203.328 115.772,203.292 115.736 C 203.256 115.700,203.100 115.935,202.947 116.258 M139.958 116.178 
       C 139.615 116.359,139.333 116.545,139.333 116.591 C 139.333 116.636,139.633 116.520,140.000 116.333 
       C 140.367 116.146,140.667 115.957,140.667 115.913 C 140.667 115.804,140.665 115.805,139.958 116.178 M170.763 116.413 
       C 170.926 116.662,171.154 117.215,171.269 117.641 C 171.403 118.142,171.480 118.269,171.485 118.000 
       C 171.494 117.515,170.960 116.265,170.667 116.083 C 170.556 116.015,170.599 116.163,170.763 116.413 M200.360 116.424 
       C 200.081 117.037,200.134 117.167,200.436 116.610 C 200.577 116.350,200.662 116.106,200.623 116.068 C 200.585 116.030,200.467 116.190,200.360 116.424 M130.185 116.685 C 130.083 116.980,130.028 117.250,130.063 117.286 C 130.099 117.321,130.212 117.109,130.315 116.815 C 130.417 116.520,130.472 116.250,130.437 116.214 C 130.401 116.179,130.288 116.391,130.185 116.685 M195.683 116.417 C 195.683 116.508,195.938 117.071,196.250 117.667 C 196.562 118.263,196.817 118.675,196.817 118.583 C 196.817 118.492,196.562 117.929,196.250 117.333 C 195.938 116.737,195.683 116.325,195.683 116.417 M138.292 117.094 C 137.856 117.321,137.500 117.544,137.500 117.589 C 137.500 117.635,137.875 117.482,138.333 117.250 C 138.792 117.018,139.167 116.791,139.167 116.747 C 139.167 116.637,139.182 116.631,138.292 117.094 M239.042 116.782 C 239.202 116.823,239.465 116.823,239.625 116.782 C 239.785 116.740,239.654 116.705,239.333 116.705 C 239.012 116.705,238.881 116.740,239.042 116.782 M119.417 117.333 C 119.274 117.608,119.196 117.833,119.241 117.833 C 119.287 117.833,119.441 117.608,119.583 117.333 C 119.726 117.058,119.804 116.833,119.759 116.833 C 119.713 116.833,119.559 117.058,119.417 117.333 M237.794 116.951 C 238.001 116.991,238.301 116.990,238.460 116.948 C 238.620 116.906,238.450 116.874,238.083 116.875 C 237.717 116.877,237.586 116.911,237.794 116.951 M199.780 117.758 C 199.388 118.579,199.443 118.719,199.853 117.943 C 200.039 117.590,200.161 117.272,200.125 117.236 C 200.089 117.200,199.934 117.435,199.780 117.758 M135.746 117.792 C 136.036 118.391,136.275 118.459,136.760 118.081 C 137.057 117.849,137.044 117.845,136.597 118.037 C 136.253 118.185,136.092 118.192,136.049 118.063 C 136.015 117.963,135.875 117.739,135.736 117.565 C 135.523 117.299,135.525 117.334,135.746 117.792 M129.685 118.019 C 129.583 118.313,129.528 118.583,129.563 118.619 C 129.599 118.655,129.712 118.443,129.815 118.148 C 129.917 117.854,129.972 117.583,129.937 117.548 C 129.901 117.512,129.788 117.724,129.685 118.019 M202.113 118.091 C 201.722 118.912,201.777 119.052,202.186 118.276 C 202.372 117.924,202.495 117.606,202.459 117.570 C 202.423 117.534,202.267 117.768,202.113 118.091 M233.250 117.824 C 232.372 118.240,232.540 118.248,233.583 117.841 C 234.042 117.662,234.304 117.514,234.167 117.512 C 234.029 117.510,233.617 117.651,233.250 117.824 M125.868 117.917 C 126.806 119.684,128.232 121.980,128.348 121.908 C 128.560 121.777,128.539 121.491,128.321 121.542 C 128.223 121.565,127.677 120.782,127.109 119.802 C 126.541 118.822,126.010 117.960,125.928 117.885 C 125.847 117.811,125.820 117.825,125.868 117.917 M142.033 118.617 C 141.929 118.956,141.872 119.261,141.905 119.294 C 141.939 119.328,142.057 119.083,142.167 118.750 C 142.277 118.417,142.334 118.112,142.295 118.072 C 142.255 118.033,142.137 118.278,142.033 118.617 M114.854 118.333 C 114.851 118.471,114.951 118.808,115.077 119.083 C 115.372 119.727,115.376 119.428,115.083 118.667 C 114.960 118.346,114.856 118.196,114.854 118.333 M231.738 118.653 C 231.123 119.105,230.202 120.424,230.377 120.600 C 230.420 120.642,230.550 120.448,230.666 120.168 C 230.782 119.887,231.251 119.322,231.707 118.912 C 232.666 118.050,232.677 117.963,231.738 118.653 M240.662 118.443 C 240.762 118.492,240.833 119.218,240.833 120.181 C 240.833 121.960,240.830 121.967,239.749 122.801 C 239.474 123.012,239.407 123.110,239.598 123.018 C 239.790 122.925,240.186 122.626,240.479 122.353 L 241.012 121.855 240.964 120.149 C 240.930 118.931,240.856 118.432,240.704 118.401 C 240.587 118.378,240.569 118.396,240.662 118.443 M171.548 119.250 C 171.549 119.708,171.581 119.876,171.620 119.623 C 171.658 119.369,171.657 118.994,171.617 118.789 C 171.578 118.584,171.546 118.792,171.548 119.250 M239.460 118.618 C 239.668 118.658,239.968 118.656,240.127 118.615 C 240.286 118.573,240.117 118.540,239.750 118.542 C 239.383 118.544,239.253 118.578,239.460 118.618 M199.194 119.090 C 198.914 119.703,198.968 119.834,199.270 119.277 C 199.411 119.017,199.495 118.773,199.457 118.735 C 199.419 118.696,199.300 118.857,199.194 119.090 M129.185 119.352 C 129.083 119.646,129.028 119.917,129.063 119.952 C 129.099 119.988,129.212 119.776,129.315 119.481 C 129.417 119.187,129.472 118.917,129.437 118.881 C 129.401 118.845,129.288 119.057,129.185 119.352 M196.843 118.872 C 196.828 119.062,198.061 121.500,198.172 121.500 C 198.303 121.500,198.868 120.312,198.780 120.224 C 198.742 120.187,198.617 120.383,198.502 120.661 C 198.211 121.364,198.152 121.324,197.463 119.958 C 197.128 119.294,196.849 118.805,196.843 118.872 M237.042 118.948 C 237.202 118.990,237.465 118.990,237.625 118.948 C 237.785 118.906,237.654 118.872,237.333 118.872 C 237.012 118.872,236.881 118.906,237.042 118.948 M201.365 119.758 C 200.863 120.792,200.919 120.936,201.436 119.942 C 201.667 119.498,201.828 119.106,201.793 119.071 C 201.758 119.036,201.565 119.345,201.365 119.758 M141.401 120.203 C 140.222 122.824,137.863 125.281,135.083 126.785 C 133.973 127.386,133.945 127.538,135.048 126.977 C 137.029 125.969,139.098 124.154,140.322 122.348 C 141.033 121.300,141.891 119.669,141.787 119.565 C 141.750 119.527,141.576 119.814,141.401 120.203 M234.194 119.975 C 233.612 120.519,233.449 121.009,233.544 121.933 C 233.606 122.537,233.613 122.524,233.645 121.750 C 233.685 120.761,233.931 120.262,234.595 119.824 C 234.863 119.647,234.998 119.502,234.893 119.501 C 234.788 119.500,234.473 119.714,234.194 119.975 M115.336 119.715 C 115.315 120.787,118.940 125.219,120.516 126.049 C 121.062 126.336,121.067 126.336,120.669 126.049 C 118.663 124.601,117.174 122.913,115.961 120.712 C 115.619 120.091,115.337 119.643,115.336 119.715 M171.301 120.833 C 171.243 121.154,171.150 121.567,171.095 121.750 C 171.040 121.933,171.113 121.830,171.256 121.521 C 171.400 121.212,171.493 120.799,171.463 120.604 C 171.424 120.352,171.377 120.418,171.301 120.833 M200.613 121.424 C 200.222 122.245,200.277 122.385,200.686 121.609 C 200.872 121.257,200.995 120.939,200.959 120.903 C 200.923 120.867,200.767 121.102,200.613 121.424 M166.193 122.452 C 165.479 123.195,165.546 123.283,166.307 122.600 C 166.635 122.306,167.118 121.632,166.964 121.682 C 166.938 121.691,166.591 122.037,166.193 122.452 M218.539 122.500 C 218.539 122.821,218.573 122.952,218.615 122.792 C 218.657 122.631,218.657 122.369,218.615 122.208 C 218.573 122.048,218.539 122.179,218.539 122.500 M170.437 122.927 C 170.179 123.335,169.638 123.906,169.234 124.196 C 168.552 124.686,168.231 125.012,168.708 124.730 C 169.632 124.184,171.193 122.471,170.970 122.247 C 170.935 122.213,170.696 122.519,170.437 122.927 M222.167 122.612 C 222.166 122.887,222.989 123.834,223.223 123.828 C 223.330 123.825,223.280 123.744,223.114 123.647 C 222.947 123.550,222.666 123.234,222.489 122.944 C 222.313 122.654,222.168 122.505,222.167 122.612 M199.780 123.258 C 199.388 124.079,199.443 124.219,199.853 123.443 C 200.039 123.090,200.161 122.772,200.125 122.736 C 200.089 122.700,199.934 122.935,199.780 123.258 M234.054 123.297 C 234.454 123.745,235.206 124.045,235.693 123.953 C 236.008 123.893,235.983 123.874,235.565 123.856 C 235.280 123.844,234.755 123.636,234.398 123.396 C 233.901 123.060,233.821 123.037,234.054 123.297 M164.167 123.583 C 163.846 123.707,163.696 123.810,163.833 123.813 C 163.971 123.816,164.308 123.715,164.583 123.589 C 165.227 123.295,164.928 123.290,164.167 123.583 M195.860 124.395 L 196.396 125.482 195.948 126.519 C 195.702 127.089,195.528 127.584,195.562 127.618 C 195.596 127.652,195.833 127.186,196.090 126.583 L 196.555 125.488 196.074 124.481 C 195.810 123.927,195.532 123.437,195.458 123.391 C 195.384 123.345,195.565 123.797,195.860 124.395 M230.333 123.600 C 230.333 124.296,232.371 126.333,233.067 126.333 C 233.160 126.333,232.827 126.089,232.327 125.791 C 231.668 125.397,231.270 124.998,230.876 124.340 C 230.578 123.840,230.333 123.507,230.333 123.600 M218.835 123.735 C 218.828 124.435,220.713 126.338,221.408 126.332 C 221.504 126.331,221.191 126.105,220.710 125.830 C 220.068 125.461,219.706 125.099,219.337 124.456 C 219.062 123.976,218.836 123.652,218.835 123.735 M162.542 123.948 C 162.702 123.990,162.965 123.990,163.125 123.948 C 163.285 123.906,163.154 123.872,162.833 123.872 C 162.512 123.872,162.381 123.906,162.542 123.948 M227.365 123.948 C 227.708 123.988,228.013 124.126,228.056 124.263 C 228.105 124.418,228.123 124.400,228.107 124.212 C 228.087 123.987,227.922 123.912,227.415 123.897 L 226.750 123.877 227.365 123.948 M236.708 123.948 C 236.869 123.990,237.131 123.990,237.292 123.948 C 237.452 123.906,237.321 123.872,237.000 123.872 C 236.679 123.872,236.548 123.906,236.708 123.948 M240.083 124.463 C 239.717 124.804,239.229 125.217,239.000 125.380 C 238.591 125.671,238.591 125.673,238.982 125.486 C 239.202 125.381,239.697 125.005,240.082 124.650 C 240.467 124.295,240.831 124.054,240.891 124.113 C 240.951 124.173,241.000 124.135,241.000 124.028 C 241.000 123.707,240.785 123.809,240.083 124.463 M224.625 124.122 C 225.015 124.157,225.652 124.157,226.042 124.122 C 226.431 124.087,226.112 124.058,225.333 124.058 C 224.554 124.058,224.235 124.087,224.625 124.122 M199.113 124.758 C 198.722 125.579,198.777 125.719,199.186 124.943 C 199.372 124.590,199.495 124.272,199.459 124.236 C 199.423 124.200,199.267 124.435,199.113 124.758 M246.329 124.686 C 246.555 124.776,246.798 124.940,246.868 125.050 C 246.966 125.205,246.995 125.204,246.997 125.048 C 247.000 124.822,246.475 124.494,246.136 124.511 C 246.015 124.516,246.102 124.595,246.329 124.686 M149.074 124.929 C 148.896 125.073,148.856 125.136,148.985 125.069 C 149.115 125.002,149.452 124.891,149.735 124.824 C 150.209 124.711,150.216 124.699,149.824 124.684 C 149.589 124.674,149.251 124.785,149.074 124.929 M167.583 125.167 C 167.217 125.336,166.975 125.481,167.047 125.488 C 167.244 125.506,168.333 125.030,168.333 124.925 C 168.333 124.812,168.385 124.796,167.583 125.167 M182.917 124.954 C 183.673 125.140,183.935 125.827,183.375 126.153 C 183.116 126.304,183.114 126.324,183.357 126.328 C 183.629 126.333,183.833 126.013,183.833 125.582 C 183.833 125.231,183.347 124.831,182.946 124.853 C 182.608 124.871,182.606 124.878,182.917 124.954 M241.025 125.208 C 240.975 126.134,241.790 126.558,243.424 126.458 L 244.417 126.396 243.231 126.365 C 241.880 126.329,241.236 125.975,241.119 125.205 L 241.050 124.750 241.025 125.208 M174.778 125.111 C 174.463 125.426,174.800 126.333,175.232 126.333 C 175.323 126.333,175.259 126.233,175.091 126.109 C 174.878 125.954,174.810 125.750,174.869 125.443 C 174.960 124.970,174.951 124.938,174.778 125.111 M164.042 126.115 C 164.202 126.157,164.465 126.157,164.625 126.115 C 164.785 126.073,164.654 126.039,164.333 126.039 C 164.012 126.039,163.881 126.073,164.042 126.115 M198.280 126.591 C 197.888 127.412,197.943 127.552,198.353 126.776 C 198.539 126.424,198.661 126.106,198.625 126.070 C 198.589 126.034,198.434 126.268,198.280 126.591 M162.128 126.287 C 162.428 126.325,162.878 126.324,163.128 126.286 C 163.378 126.248,163.133 126.217,162.583 126.218 C 162.033 126.219,161.828 126.250,162.128 126.287 M244.958 126.284 C 245.165 126.324,245.502 126.324,245.708 126.284 C 245.915 126.245,245.746 126.212,245.333 126.212 C 244.921 126.212,244.752 126.245,244.958 126.284 M121.167 126.416 C 121.167 126.528,123.187 127.535,123.262 127.461 C 123.295 127.427,122.838 127.160,122.245 126.868 C 121.652 126.576,121.167 126.372,121.167 126.416 M222.958 126.618 C 223.165 126.657,223.502 126.657,223.708 126.618 C 223.915 126.578,223.746 126.545,223.333 126.545 C 222.921 126.545,222.752 126.578,222.958 126.618 M234.628 126.621 C 234.928 126.658,235.378 126.657,235.628 126.619 C 235.878 126.581,235.633 126.551,235.083 126.552 C 234.533 126.553,234.328 126.584,234.628 126.621 M195.068 128.540 C 194.893 128.930,194.487 129.550,194.167 129.917 C 193.846 130.283,193.733 130.471,193.917 130.333 C 194.503 129.893,195.643 128.088,195.454 127.898 C 195.416 127.861,195.243 128.149,195.068 128.540 M197.447 128.424 C 197.055 129.245,197.110 129.385,197.519 128.609 C 197.705 128.257,197.828 127.939,197.792 127.903 C 197.756 127.867,197.600 128.102,197.447 128.424 M125.333 128.167 C 125.563 128.240,125.938 128.299,126.167 128.297 C 126.541 128.294,126.532 128.281,126.083 128.167 C 125.378 127.987,124.773 127.987,125.333 128.167 M131.000 128.167 C 130.670 128.272,130.653 128.300,130.917 128.300 C 131.100 128.300,131.438 128.240,131.667 128.167 C 131.997 128.061,132.014 128.033,131.750 128.033 C 131.567 128.033,131.229 128.093,131.000 128.167 M127.625 128.456 C 128.106 128.490,128.894 128.490,129.375 128.456 C 129.856 128.423,129.462 128.395,128.500 128.395 C 127.537 128.395,127.144 128.423,127.625 128.456 M196.321 130.690 C 195.863 131.589,194.622 132.909,193.988 133.172 C 193.714 133.285,193.522 133.411,193.563 133.451 C 193.725 133.614,194.638 132.982,195.365 132.205 C 196.048 131.475,196.979 130.000,196.757 130.000 C 196.711 130.000,196.515 130.311,196.321 130.690 M190.088 130.658 C 189.584 131.633,190.075 133.500,190.835 133.500 C 190.912 133.500,190.755 133.281,190.487 133.013 C 189.675 132.201,189.888 130.427,190.814 130.284 L 191.250 130.217 190.796 130.192 C 190.449 130.173,190.282 130.282,190.088 130.658 M192.208 130.619 C 192.460 130.658,192.873 130.658,193.125 130.619 C 193.377 130.581,193.171 130.550,192.667 130.550 C 192.162 130.550,191.956 130.581,192.208 130.619 " stroke="none" fill="#fce5cc" fill-rule="evenodd"/><path id="path4" d="M127.333 100.108 C 127.104 100.143,126.591 100.213,126.193 100.265 C 125.795 100.316,125.496 100.385,125.529 100.418 C 125.562 100.451,126.450 100.379,127.503 100.258 C 128.555 100.138,129.042 100.040,128.583 100.042 C 128.125 100.044,127.563 100.074,127.333 100.108 M129.960 100.285 C 130.168 100.324,130.468 100.323,130.627 100.281 C 130.786 100.239,130.617 100.207,130.250 100.209 C 129.883 100.211,129.753 100.245,129.960 100.285 M131.014 100.395 C 131.052 100.428,131.383 100.501,131.750 100.557 C 132.215 100.628,132.316 100.613,132.083 100.508 C 131.763 100.363,130.871 100.268,131.014 100.395 M149.123 100.599 C 148.496 101.226,149.124 101.714,150.917 101.994 C 152.489 102.240,152.786 102.372,152.882 102.875 L 152.955 103.250 152.977 102.879 C 153.009 102.355,152.460 102.065,151.000 101.837 C 149.229 101.560,149.167 101.534,149.167 101.060 L 149.167 100.642 156.542 100.711 C 162.932 100.770,164.049 100.818,164.908 101.070 C 167.904 101.949,169.064 103.343,169.340 106.398 L 169.478 107.917 169.428 106.409 C 169.331 103.425,168.007 101.813,164.908 100.903 C 163.858 100.595,149.405 100.317,149.123 100.599 M122.995 101.219 C 120.004 102.525,115.667 106.774,115.667 108.398 C 115.667 108.488,116.060 107.899,116.542 107.090 C 118.117 104.441,120.508 102.393,123.388 101.225 C 124.137 100.921,124.638 100.672,124.500 100.672 C 124.362 100.671,123.685 100.917,122.995 101.219 M133.240 101.004 C 133.693 101.181,134.090 101.299,134.122 101.267 C 134.202 101.187,132.878 100.665,132.622 100.674 C 132.509 100.679,132.787 100.827,133.240 101.004 M135.555 102.093 C 137.952 103.496,140.017 105.771,141.276 108.394 C 141.590 109.048,141.796 109.396,141.735 109.167 C 141.025 106.512,136.194 101.338,134.420 101.334 C 134.330 101.334,134.841 101.675,135.555 102.093 M156.248 102.529 C 156.045 103.057,156.247 112.055,156.462 112.099 C 156.579 112.122,156.598 112.104,156.504 112.057 C 156.393 112.002,156.333 110.300,156.333 107.221 L 156.333 102.470 159.708 102.537 C 163.267 102.607,163.678 102.686,164.713 103.501 C 165.628 104.221,165.917 105.059,165.917 107.000 C 165.917 110.250,164.708 111.631,161.541 111.999 L 160.250 112.149 161.511 112.090 C 164.674 111.941,166.083 110.372,166.083 107.000 C 166.083 104.603,165.484 103.530,163.688 102.712 C 162.858 102.335,156.384 102.175,156.248 102.529 M219.526 105.329 C 218.714 105.526,218.684 105.595,218.632 107.418 L 218.583 109.083 217.917 109.224 C 217.550 109.302,217.079 109.398,216.869 109.437 C 216.461 109.514,216.115 110.172,216.270 110.575 C 216.336 110.748,216.686 110.833,217.473 110.868 L 218.583 110.917 218.667 117.000 C 218.748 122.905,218.761 123.108,219.133 123.915 C 219.835 125.437,221.182 126.350,222.667 126.310 C 223.402 126.290,223.398 126.287,222.454 126.166 C 221.027 125.984,220.044 125.311,219.419 124.090 L 218.917 123.108 218.867 117.103 C 218.811 110.342,218.890 110.702,217.444 110.633 C 215.820 110.555,216.007 109.644,217.688 109.445 C 218.845 109.308,218.833 109.329,218.833 107.425 C 218.833 105.442,218.758 105.532,220.542 105.380 L 221.667 105.285 221.667 107.208 C 221.667 109.517,221.428 109.345,224.555 109.298 L 226.917 109.264 224.417 109.173 L 221.917 109.083 221.833 107.167 L 221.750 105.250 220.917 105.222 C 220.458 105.206,219.833 105.254,219.526 105.329 M131.506 106.439 C 131.313 106.955,131.188 107.410,131.228 107.450 C 131.267 107.490,131.392 107.236,131.505 106.886 C 131.856 105.801,131.990 105.617,132.265 105.846 C 132.463 106.010,132.488 105.997,132.403 105.774 C 132.201 105.249,131.855 105.506,131.506 106.439 M134.769 110.708 C 135.927 113.023,136.953 114.967,137.051 115.029 C 137.218 115.135,138.833 114.424,138.833 114.244 C 138.833 114.199,138.466 114.347,138.016 114.575 C 137.008 115.086,137.320 115.483,134.851 110.542 C 133.741 108.319,132.795 106.500,132.749 106.500 C 132.703 106.500,133.612 108.394,134.769 110.708 M153.055 108.083 C 153.055 108.725,153.086 108.967,153.122 108.621 C 153.158 108.275,153.157 107.750,153.120 107.455 C 153.083 107.159,153.054 107.442,153.055 108.083 M121.796 108.282 C 121.486 108.815,120.599 110.401,119.825 111.809 C 119.050 113.216,118.324 114.405,118.210 114.451 C 117.777 114.626,114.797 111.809,114.895 111.317 C 115.143 110.075,115.149 109.947,114.926 110.583 C 114.548 111.661,114.590 111.742,116.292 113.236 C 118.467 115.145,117.994 115.428,120.648 110.628 C 122.537 107.211,122.405 107.312,123.299 108.605 C 123.417 108.777,123.342 108.585,123.132 108.179 C 122.604 107.160,122.443 107.172,121.796 108.282 M130.852 108.185 C 130.749 108.480,130.694 108.750,130.730 108.786 C 130.766 108.821,130.879 108.609,130.981 108.315 C 131.084 108.020,131.139 107.750,131.103 107.714 C 131.068 107.679,130.955 107.891,130.852 108.185 M169.186 108.259 C 169.120 109.422,167.266 111.638,165.827 112.273 C 164.909 112.678,165.041 112.972,166.335 113.407 C 168.878 114.263,170.770 116.086,171.159 118.054 C 171.279 118.662,171.299 118.685,171.315 118.241 C 171.376 116.544,168.997 114.117,166.430 113.259 C 165.234 112.859,165.227 112.839,166.129 112.324 C 167.729 111.410,169.510 109.093,169.284 108.219 C 169.216 107.957,169.203 107.963,169.186 108.259 M177.448 109.165 C 174.641 109.598,174.667 109.589,174.667 110.152 C 174.667 110.655,174.926 110.848,175.555 110.814 C 175.817 110.799,175.779 110.765,175.417 110.687 C 175.024 110.603,174.917 110.491,174.917 110.165 C 174.917 109.734,175.573 109.566,179.047 109.110 C 180.055 108.977,180.167 109.207,180.167 111.418 C 180.167 113.171,180.306 113.418,180.846 112.627 C 181.902 111.083,183.639 109.634,184.917 109.232 C 185.283 109.117,185.434 109.017,185.252 109.011 C 184.324 108.980,182.222 110.534,180.870 112.250 L 180.345 112.917 180.336 111.333 C 180.323 108.737,180.305 108.724,177.448 109.165 M186.333 109.032 C 186.746 109.130,189.090 109.241,191.542 109.279 C 195.765 109.345,196.000 109.365,196.000 109.661 C 196.000 109.924,195.823 109.991,194.875 110.087 C 193.447 110.232,192.931 110.532,193.054 111.146 C 193.157 111.660,197.742 121.475,197.999 121.733 C 198.300 122.034,198.563 121.534,200.711 116.583 C 203.501 110.151,203.475 110.391,201.410 110.143 C 200.241 110.002,199.879 109.831,200.074 109.515 C 200.305 109.142,207.500 109.276,207.500 109.653 C 207.500 109.877,207.348 110.003,207.000 110.070 C 206.725 110.123,206.281 110.209,206.012 110.261 C 205.339 110.390,205.493 110.091,201.086 119.835 C 195.630 131.897,195.432 132.253,193.750 133.021 C 191.385 134.102,189.133 132.337,190.581 130.539 C 190.601 130.514,191.075 130.612,191.636 130.755 C 193.653 131.272,194.583 130.586,195.882 127.617 C 196.896 125.304,197.180 126.265,193.061 118.083 C 189.522 111.053,189.124 110.333,188.776 110.333 C 188.681 110.333,188.734 110.429,188.895 110.547 C 189.240 110.799,196.500 125.107,196.500 125.535 C 196.500 126.037,195.020 129.234,194.489 129.878 C 193.788 130.728,192.976 130.932,191.647 130.591 C 191.093 130.449,190.610 130.333,190.574 130.333 C 190.538 130.333,190.394 130.555,190.254 130.825 C 189.204 132.856,191.555 134.270,193.977 133.064 C 195.631 132.239,195.823 131.890,201.325 119.667 C 205.234 110.981,205.587 110.333,206.415 110.333 C 207.172 110.333,207.694 110.030,207.637 109.625 C 207.567 109.135,200.126 108.931,199.941 109.414 C 199.745 109.925,200.016 110.145,200.972 110.249 C 203.176 110.487,203.169 110.449,201.696 113.878 C 199.435 119.144,198.294 121.667,198.174 121.667 C 198.038 121.667,193.380 111.839,193.247 111.274 C 193.103 110.659,193.408 110.458,194.776 110.266 C 196.011 110.094,196.083 110.060,196.083 109.667 L 196.083 109.250 191.583 109.141 C 189.108 109.081,186.746 108.992,186.333 108.943 L 185.583 108.854 186.333 109.032 M235.710 109.018 C 234.939 109.146,233.541 109.586,232.121 110.146 C 231.866 110.246,231.613 110.447,231.557 110.591 C 231.416 110.960,232.136 114.535,232.407 114.809 C 232.736 115.142,233.315 114.890,233.431 114.364 C 234.081 111.404,234.924 110.702,237.620 110.873 C 239.965 111.022,241.000 112.320,241.000 115.113 C 241.000 116.922,241.372 116.684,237.917 117.085 C 232.411 117.726,230.340 119.063,230.335 121.981 C 230.326 126.683,236.558 128.069,240.240 124.183 C 240.963 123.420,241.167 123.504,241.167 124.565 C 241.167 125.803,241.479 126.154,242.667 126.249 C 243.616 126.325,243.537 126.263,242.464 126.088 C 241.549 125.939,241.333 125.636,241.333 124.498 C 241.333 123.219,241.129 123.138,240.192 124.045 C 236.342 127.771,230.487 126.593,230.504 122.095 C 230.514 119.108,232.409 117.883,238.000 117.247 C 241.370 116.863,241.167 117.000,241.167 115.117 C 241.167 112.059,239.976 110.750,237.194 110.750 C 234.798 110.750,234.030 111.310,233.492 113.449 C 233.210 114.567,232.833 115.069,232.516 114.746 C 232.357 114.585,231.667 111.404,231.667 110.836 C 231.667 110.171,234.943 109.168,237.833 108.949 C 238.422 108.904,238.368 108.889,237.583 108.882 C 237.033 108.877,236.190 108.938,235.710 109.018 M123.550 109.125 C 124.996 111.708,126.719 114.667,126.776 114.667 C 126.819 114.667,126.822 114.610,126.783 114.542 C 125.337 111.959,123.615 109.000,123.557 109.000 C 123.515 109.000,123.512 109.056,123.550 109.125 M130.108 110.192 C 129.865 110.850,129.694 111.416,129.728 111.450 C 129.762 111.485,129.990 110.974,130.233 110.317 C 130.477 109.659,130.648 109.093,130.613 109.058 C 130.579 109.023,130.351 109.533,130.108 110.192 M227.450 109.120 C 228.044 109.194,228.244 109.551,228.073 110.232 L 227.966 110.659 224.858 110.705 L 221.750 110.750 221.700 116.250 C 221.633 123.738,222.001 124.574,225.322 124.478 C 225.983 124.459,225.934 124.439,224.952 124.325 C 221.930 123.973,221.816 123.685,221.873 116.502 L 221.917 110.917 225.000 110.833 L 228.083 110.750 228.236 110.133 C 228.428 109.354,228.165 108.989,227.438 109.027 L 226.917 109.053 227.450 109.120 M239.605 109.235 C 241.976 109.783,243.434 111.159,243.950 113.333 L 244.167 114.250 244.084 113.441 C 243.863 111.275,241.772 109.329,239.403 109.083 C 238.611 109.001,238.618 109.006,239.605 109.235 M153.039 109.833 C 153.039 110.154,153.073 110.285,153.115 110.125 C 153.157 109.965,153.157 109.702,153.115 109.542 C 153.073 109.381,153.039 109.513,153.039 109.833 M142.108 110.792 C 142.380 112.169,142.381 112.168,140.709 113.092 C 139.862 113.560,139.112 114.006,139.042 114.082 C 138.817 114.332,141.908 112.633,142.224 112.333 C 142.512 112.061,142.371 110.167,142.064 110.167 C 142.020 110.167,142.040 110.448,142.108 110.792 M187.278 110.278 C 187.217 110.339,187.167 110.741,187.167 111.172 L 187.167 111.955 185.542 112.035 C 183.618 112.129,182.517 112.567,181.176 113.773 L 180.333 114.531 180.333 119.495 C 180.333 125.174,180.212 124.759,181.945 125.032 C 183.108 125.216,183.628 125.492,183.427 125.817 C 183.274 126.065,175.232 126.073,175.079 125.826 C 174.896 125.530,175.321 125.198,176.036 125.077 C 176.412 125.014,176.896 124.786,177.110 124.572 L 177.500 124.182 177.500 117.769 C 177.500 110.679,177.520 110.808,176.446 110.858 L 175.917 110.883 176.417 110.956 C 177.365 111.095,177.333 110.862,177.333 117.770 C 177.333 124.986,177.389 124.682,176.033 124.911 C 175.120 125.065,174.763 125.349,174.907 125.804 C 175.058 126.280,183.380 126.388,183.560 125.917 C 183.796 125.303,183.499 125.100,182.083 124.903 C 181.625 124.840,181.081 124.725,180.875 124.648 L 180.500 124.508 180.500 119.524 L 180.500 114.539 181.162 113.941 C 182.410 112.813,183.703 112.299,185.583 112.185 L 187.250 112.083 187.333 111.250 C 187.413 110.450,187.440 110.413,188.000 110.314 L 188.583 110.211 187.986 110.189 C 187.658 110.177,187.339 110.217,187.278 110.278 M129.352 112.185 C 129.249 112.480,129.194 112.750,129.230 112.786 C 129.266 112.821,129.379 112.609,129.481 112.315 C 129.584 112.020,129.639 111.750,129.603 111.714 C 129.568 111.679,129.455 111.891,129.352 112.185 M132.167 112.010 C 132.167 112.107,132.238 112.142,132.326 112.088 C 132.414 112.033,132.603 112.217,132.747 112.495 C 133.110 113.196,133.224 113.131,132.883 112.417 C 132.623 111.872,132.167 111.613,132.167 112.010 M131.852 112.852 C 131.749 113.146,131.694 113.417,131.730 113.452 C 131.766 113.488,131.879 113.276,131.981 112.981 C 132.084 112.687,132.139 112.417,132.103 112.381 C 132.068 112.345,131.955 112.557,131.852 112.852 M122.007 113.197 C 121.818 113.593,121.758 113.779,121.873 113.611 C 122.635 112.501,122.328 112.153,125.486 117.705 C 128.166 122.415,128.192 122.454,128.479 122.109 C 128.704 121.837,129.196 120.474,129.102 120.380 C 129.065 120.342,128.908 120.692,128.754 121.156 C 128.336 122.415,128.297 122.370,125.403 117.299 C 122.449 112.121,122.495 112.177,122.007 113.197 M128.852 113.519 C 128.749 113.813,128.694 114.083,128.730 114.119 C 128.766 114.155,128.879 113.943,128.981 113.648 C 129.084 113.354,129.139 113.083,129.103 113.048 C 129.068 113.012,128.955 113.224,128.852 113.519 M133.171 113.250 C 133.173 113.449,134.160 115.142,134.164 114.952 C 134.165 114.880,133.942 114.430,133.668 113.952 C 133.394 113.474,133.170 113.158,133.171 113.250 M131.352 114.185 C 131.249 114.480,131.194 114.750,131.230 114.786 C 131.266 114.821,131.379 114.609,131.481 114.315 C 131.584 114.020,131.639 113.750,131.603 113.714 C 131.568 113.679,131.455 113.891,131.352 114.185 M153.042 114.250 C 153.044 114.617,153.078 114.747,153.118 114.540 C 153.158 114.332,153.156 114.032,153.115 113.873 C 153.073 113.714,153.040 113.883,153.042 114.250 M156.375 113.944 C 156.028 114.084,156.079 123.722,156.429 124.071 C 156.650 124.293,157.154 124.328,159.720 124.296 L 162.750 124.258 159.726 124.209 C 157.439 124.171,156.656 124.104,156.515 123.934 C 156.384 123.777,156.341 122.263,156.372 118.896 L 156.417 114.083 158.583 114.032 C 165.090 113.879,167.667 115.312,167.667 119.083 C 167.667 121.704,165.683 123.898,163.202 124.023 C 162.803 124.043,162.795 124.054,163.129 124.118 C 163.969 124.279,166.124 123.281,166.806 122.414 C 168.865 119.796,167.807 115.658,164.790 114.529 C 163.276 113.963,157.349 113.551,156.375 113.944 M120.491 115.875 C 119.920 116.906,119.422 117.806,119.384 117.875 C 119.345 117.944,119.349 118.000,119.392 118.000 C 119.436 118.000,119.938 117.156,120.509 116.125 C 121.080 115.094,121.578 114.194,121.616 114.125 C 121.655 114.056,121.651 114.000,121.608 114.000 C 121.564 114.000,121.062 114.844,120.491 115.875 M128.254 115.154 C 127.887 116.259,127.748 116.312,127.336 115.506 C 127.148 115.136,126.952 114.833,126.901 114.833 C 126.739 114.833,127.575 116.223,127.776 116.288 C 127.963 116.349,128.754 114.532,128.606 114.384 C 128.566 114.344,128.408 114.691,128.254 115.154 M244.245 119.327 L 244.250 124.404 244.750 124.533 C 245.025 124.603,245.569 124.740,245.958 124.837 C 247.306 125.172,246.976 125.779,245.375 125.912 C 243.700 126.052,243.378 126.126,244.417 126.135 C 246.184 126.150,246.750 125.975,246.750 125.417 C 246.750 124.967,246.675 124.895,246.000 124.702 C 245.588 124.585,245.063 124.433,244.833 124.365 L 244.417 124.242 244.328 119.246 L 244.240 114.250 244.245 119.327 M130.852 115.519 C 130.749 115.813,130.694 116.083,130.730 116.119 C 130.766 116.155,130.879 115.943,130.981 115.648 C 131.084 115.354,131.139 115.083,131.103 115.048 C 131.068 115.012,130.955 115.224,130.852 115.519 M114.522 115.792 L 114.544 116.417 114.647 115.857 L 114.750 115.297 116.664 116.982 C 118.544 118.636,119.037 118.913,119.226 118.419 C 119.305 118.213,119.267 118.205,118.999 118.372 C 118.728 118.542,118.606 118.507,118.214 118.150 C 114.883 115.109,114.489 114.858,114.522 115.792 M139.869 116.482 C 138.560 117.201,137.435 117.847,137.369 117.917 C 137.211 118.087,137.679 117.847,140.215 116.459 C 141.388 115.817,142.387 115.331,142.434 115.379 C 142.543 115.487,142.232 117.231,141.916 118.279 C 141.786 118.713,141.709 119.097,141.745 119.134 C 141.941 119.330,142.758 115.616,142.581 115.330 C 142.426 115.079,142.406 115.088,139.869 116.482 M153.039 115.667 C 153.039 115.987,153.073 116.119,153.115 115.958 C 153.157 115.798,153.157 115.535,153.115 115.375 C 153.073 115.215,153.039 115.346,153.039 115.667 M134.616 116.081 C 134.768 116.401,134.923 116.633,134.959 116.597 C 135.035 116.520,134.529 115.500,134.415 115.500 C 134.373 115.500,134.463 115.762,134.616 116.081 M130.352 116.852 C 130.249 117.146,130.194 117.417,130.230 117.452 C 130.266 117.488,130.379 117.276,130.481 116.981 C 130.584 116.687,130.639 116.417,130.603 116.381 C 130.568 116.345,130.455 116.557,130.352 116.852 M153.053 117.667 C 153.053 118.263,153.084 118.506,153.121 118.208 C 153.158 117.910,153.158 117.423,153.121 117.125 C 153.084 116.827,153.053 117.071,153.053 117.667 M135.494 117.822 C 135.678 118.182,135.902 118.523,135.993 118.579 C 136.152 118.677,137.167 118.242,137.167 118.075 C 137.167 118.029,136.945 118.106,136.675 118.246 C 136.023 118.583,136.056 118.596,135.667 117.833 C 135.480 117.467,135.289 117.167,135.243 117.167 C 135.197 117.167,135.310 117.462,135.494 117.822 M114.857 117.500 C 114.857 117.638,114.921 117.900,115.000 118.083 C 115.090 118.293,115.143 118.324,115.143 118.167 C 115.143 118.029,115.079 117.767,115.000 117.583 C 114.910 117.373,114.857 117.342,114.857 117.500 M129.852 118.185 C 129.749 118.480,129.694 118.750,129.730 118.786 C 129.766 118.821,129.879 118.609,129.981 118.315 C 130.084 118.020,130.139 117.750,130.103 117.714 C 130.068 117.679,129.955 117.891,129.852 118.185 M238.167 118.483 C 234.835 118.994,233.718 119.570,233.341 120.972 C 232.839 122.836,234.225 124.382,236.333 124.312 C 236.768 124.298,236.673 124.257,235.963 124.153 C 232.621 123.663,232.394 120.133,235.643 119.171 C 236.587 118.891,239.992 118.333,240.756 118.333 C 241.277 118.333,241.090 121.853,240.542 122.365 C 239.771 123.083,238.795 123.641,237.833 123.914 C 237.083 124.126,237.035 124.159,237.569 124.093 C 238.434 123.986,239.766 123.314,240.547 122.591 L 241.178 122.007 241.130 120.128 L 241.083 118.250 240.583 118.220 C 240.308 118.203,239.221 118.322,238.167 118.483 M171.243 119.778 C 170.813 123.335,168.567 125.247,164.143 125.820 C 163.274 125.933,163.206 125.962,163.765 125.979 C 166.457 126.062,169.932 124.159,170.842 122.103 C 171.159 121.386,171.599 119.043,171.445 118.890 C 171.399 118.843,171.308 119.243,171.243 119.778 M129.352 119.519 C 129.249 119.813,129.194 120.083,129.230 120.119 C 129.266 120.155,129.379 119.943,129.481 119.648 C 129.584 119.354,129.639 119.083,129.603 119.048 C 129.568 119.012,129.455 119.224,129.352 119.519 M141.071 120.368 C 139.561 123.558,136.637 126.122,133.000 127.443 C 132.404 127.660,132.126 127.796,132.382 127.747 C 134.655 127.307,137.758 125.262,139.525 123.039 C 140.428 121.902,141.781 119.558,141.624 119.402 C 141.588 119.366,141.340 119.801,141.071 120.368 M115.502 119.587 C 115.477 121.644,122.078 127.683,124.332 127.665 C 124.470 127.664,124.007 127.411,123.302 127.103 C 119.952 125.641,117.929 123.813,116.210 120.697 C 115.822 119.993,115.503 119.493,115.502 119.587 M153.042 121.083 C 153.044 121.450,153.078 121.580,153.118 121.373 C 153.158 121.166,153.156 120.866,153.115 120.706 C 153.073 120.547,153.040 120.717,153.042 121.083 M153.042 122.750 C 153.044 123.117,153.078 123.247,153.118 123.040 C 153.158 122.832,153.156 122.532,153.115 122.373 C 153.073 122.214,153.040 122.383,153.042 122.750 M152.853 123.782 C 152.831 124.199,152.657 124.336,151.931 124.510 C 151.440 124.627,151.437 124.633,151.857 124.650 C 152.444 124.672,153.061 124.162,152.955 123.742 C 152.880 123.449,152.870 123.453,152.853 123.782 M227.458 124.109 C 229.008 124.442,226.953 125.808,224.337 126.184 L 223.417 126.316 224.417 126.259 C 225.527 126.196,227.209 125.664,227.698 125.221 C 228.161 124.802,228.040 124.091,227.500 124.056 C 227.133 124.032,227.128 124.038,227.458 124.109 M150.038 124.824 C 149.187 124.963,148.953 125.163,149.028 125.689 L 149.083 126.083 156.083 126.086 L 163.083 126.089 156.125 126.043 L 149.167 125.996 149.167 125.585 C 149.167 125.291,149.274 125.152,149.542 125.099 C 151.411 124.731,151.744 124.547,150.038 124.824 M124.974 127.844 C 125.189 127.930,125.789 128.037,126.307 128.082 L 127.250 128.163 126.083 127.928 C 124.708 127.651,124.442 127.631,124.974 127.844 M130.500 128.000 L 129.750 128.117 130.417 128.125 C 130.783 128.130,131.271 128.073,131.500 128.000 C 132.026 127.831,131.584 127.831,130.500 128.000 M127.875 128.288 C 128.219 128.324,128.781 128.324,129.125 128.288 C 129.469 128.252,129.188 128.223,128.500 128.223 C 127.813 128.223,127.531 128.252,127.875 128.288 " stroke="none" fill="#fcc494" fill-rule="evenodd"/></g></svg>