<svg xmlns="http://www.w3.org/2000/svg" version="1.0" width="1450" height="500" viewBox="0 0 1440 435" preserveAspectRatio="xMidYMid meet">

<g transform="translate(0.000000,825.000000) scale(0.100000,-0.100000)" fill="#000000" stroke="none">
<path d="M2 7773 l3 -476 125 -49 c69 -26 177 -68 240 -92 106 -41 462 -177 605 -232 33 -12 132 -50 220 -84 88 -33 183 -69 210 -79 28 -11 104 -40 170 -66 66 -25 156 -60 200 -76 44 -17 148 -57 230 -89 83 -32 247 -95 365 -140 118 -45 224 -85 235 -90 11 -4 29 -11 40 -15 11 -4 90 -34 175 -67 85 -33 247 -95 360 -138 391 -150 575 -220 610 -234 19 -8 85 -33 145 -56 124 -46 260 -99 290 -111 11 -5 70 -27 130 -49 61 -22 119 -45 130 -49 11 -5 45 -19 75 -30 30 -11 109 -41 174 -67 66 -25 174 -66 240 -91 67 -25 160 -61 209 -79 172 -67 264 -102 372 -143 61 -23 119 -46 130 -50 11 -5 58 -23 105 -41 47 -17 105 -40 130 -50 25 -10 72 -28 105 -40 33 -12 69 -26 80 -31 11 -4 70 -27 130 -49 61 -22 119 -44 130 -49 11 -5 56 -23 100 -39 44 -17 139 -53 210 -80 127 -49 485 -185 515 -195 8 -3 -1606 -6 -3587 -6 l-3603 -1 0 -34 c0 -25 5 -35 20 -39 29 -8 29 -86 0 -94 -64 -17 14 -23 295 -23 l315 0 0 -415 0 -415 -315 0 c-273 0 -315 -2 -315 -15 0 -8 9 -15 20 -15 17 0 20 -7 20 -46 0 -37 -4 -47 -20 -51 -15 -4 -20 -14 -20 -39 l0 -34 363 0 c199 0 1811 -1 3582 -1 2245 -1 3209 -4 3185 -11 -19 -6 -127 -37 -240 -68 -113 -32 -248 -70 -300 -85 -52 -14 -248 -69 -435 -120 -187 -52 -414 -115 -505 -140 -91 -26 -255 -72 -365 -102 -353 -98 -396 -109 -640 -177 -132 -37 -289 -81 -350 -97 -60 -17 -180 -50 -265 -74 -85 -24 -279 -78 -430 -120 -151 -42 -365 -101 -475 -132 -110 -31 -229 -64 -265 -73 -36 -10 -198 -55 -360 -100 -162 -45 -360 -100 -440 -122 -80 -22 -167 -46 -195 -53 -27 -8 -115 -33 -195 -55 -80 -23 -201 -57 -270 -76 -69 -18 -190 -52 -270 -74 -80 -23 -248 -70 -375 -105 -126 -35 -338 -94 -470 -130 -132 -37 -250 -70 -263 -72 l-22 -5 0 -664 0 -664 6400 0 6400 0 0 4125 0 4125 -6400 0 -6400 0 2 -477z m9381 -1806 c92 -33 147 -68 214 -136 116 -115 178 -296 156 -450 -36 -245 -196 -422 -432 -477 -133 -32 -300 -2 -420 75 -112 72 -213 219 -240 349 -61 297 127 590 423 658 85 19 216 11 299 -19z m1968 -397 c119 -46 224 -160 263 -285 14 -43 17 -79 14 -153 -3 -83 -8 -107 -35 -165 -85 -179 -282 -286 -473 -256 -147 23 -275 119 -340 254 -29 60 -34 83 -38 165 -5 111 16 188 75 277 55 84 161 158 260 183 63 16 211 5 274 -20z m-11146 -1150 c0 -42 -2 -45 -29 -48 -40 -5 -46 8 -37 91 1 5 16 7 34 5 31 -3 32 -5 32 -48z m165 -1 l0 -50 -32 3 c-29 3 -33 7 -36 36 -5 49 3 62 38 62 29 0 30 -1 30 -51z m165 1 c0 -43 -1 -45 -32 -48 l-33 -3 0 51 0 51 33 -3 c31 -3 32 -5 32 -48z m160 0 c0 -43 -1 -45 -30 -45 -27 0 -30 4 -33 33 -5 50 4 64 35 60 26 -3 28 -6 28 -48z m160 0 c0 -43 -1 -45 -32 -48 l-33 -3 0 51 0 51 33 -3 c31 -3 32 -5 32 -48z m170 0 c0 -43 -1 -45 -32 -48 -33 -3 -33 -3 -33 41 0 51 6 59 40 55 23 -3 25 -7 25 -48z m168 38 c-2 -5 -3 -26 -3 -49 0 -39 -1 -40 -32 -37 -29 3 -33 7 -36 36 -5 52 3 64 40 60 18 -2 32 -6 31 -10z m162 -38 c0 -43 -1 -45 -32 -48 -33 -3 -33 -3 -33 41 0 51 6 59 40 55 23 -3 25 -7 25 -48z m170 0 c0 -42 -2 -45 -29 -48 -36 -4 -43 6 -38 58 4 39 6 41 36 38 30 -3 31 -5 31 -48z m165 -1 l0 -50 -32 3 c-29 3 -33 7 -36 36 -5 49 3 62 38 62 29 0 30 -1 30 -51z m165 1 c0 -43 -1 -45 -32 -48 l-33 -3 0 51 0 51 33 -3 c31 -3 32 -5 32 -48z m160 0 c0 -43 -1 -45 -30 -45 -27 0 -30 4 -33 33 -5 50 4 64 35 60 26 -3 28 -6 28 -48z m160 0 c0 -43 -1 -45 -32 -48 l-33 -3 0 51 0 51 33 -3 c31 -3 32 -5 32 -48z m170 0 c0 -43 -1 -45 -32 -48 -33 -3 -33 -3 -33 41 0 51 6 59 40 55 23 -3 25 -7 25 -48z m170 0 c0 -45 0 -45 -35 -45 -32 0 -35 2 -38 33 -5 52 3 64 40 60 32 -3 33 -5 33 -48z m160 0 c0 -43 -1 -45 -32 -48 -33 -3 -33 -3 -33 41 0 51 6 59 40 55 23 -3 25 -7 25 -48z m170 0 c0 -45 0 -45 -34 -45 -29 0 -35 4 -38 25 -2 14 -1 35 2 48 5 19 11 23 38 20 31 -3 32 -5 32 -48z m165 -1 l0 -50 -32 3 c-29 3 -33 7 -36 36 -5 49 3 62 38 62 29 0 30 -1 30 -51z m165 1 c0 -43 -1 -45 -32 -48 l-33 -3 0 51 0 51 33 -3 c31 -3 32 -5 32 -48z m160 0 c0 -43 -1 -45 -30 -45 -27 0 -30 4 -33 33 -5 50 4 64 35 60 26 -3 28 -6 28 -48z m160 0 c0 -43 -1 -45 -32 -48 l-33 -3 0 51 0 51 33 -3 c31 -3 32 -5 32 -48z m170 0 c0 -43 -1 -45 -32 -48 l-33 -3 0 51 0 51 33 -3 c31 -3 32 -5 32 -48z m168 38 c-2 -5 -3 -26 -3 -49 0 -39 -1 -40 -32 -37 -29 3 -33 7 -36 36 -5 52 3 64 40 60 18 -2 32 -6 31 -10z m162 -38 c0 -43 -1 -45 -32 -48 -33 -3 -33 -3 -33 41 0 51 6 59 40 55 23 -3 25 -7 25 -48z m170 0 c0 -45 0 -45 -35 -45 -33 0 -35 2 -34 33 2 64 2 63 37 60 31 -3 32 -5 32 -48z m165 -1 l0 -50 -32 3 c-29 3 -33 7 -35 38 -4 49 2 60 37 60 29 0 30 -1 30 -51z m165 1 c0 -43 -1 -45 -32 -48 l-33 -3 0 51 0 51 33 -3 c31 -3 32 -5 32 -48z m160 0 c0 -43 -1 -45 -30 -45 -27 0 -30 4 -33 33 -5 50 4 64 35 60 26 -3 28 -6 28 -48z m160 0 c0 -43 -1 -45 -32 -48 l-33 -3 0 51 0 51 33 -3 c31 -3 32 -5 32 -48z m170 0 c0 -43 -1 -45 -32 -48 l-33 -3 0 51 0 51 33 -3 c31 -3 32 -5 32 -48z m165 -1 l0 -50 -32 3 c-29 3 -33 7 -36 36 -5 49 3 62 38 62 29 0 30 -1 30 -51z m165 1 c0 -43 -1 -45 -32 -48 l-33 -3 0 51 0 51 33 -3 c31 -3 32 -5 32 -48z m170 0 c0 -42 -2 -45 -29 -48 -39 -5 -46 6 -39 56 6 41 7 43 37 40 30 -3 31 -5 31 -48z m165 -1 l0 -50 -32 3 c-29 3 -33 7 -36 36 -5 49 3 62 38 62 29 0 30 -1 30 -51z m165 1 c0 -43 -1 -45 -32 -48 l-33 -3 0 51 0 51 33 -3 c31 -3 32 -5 32 -48z m160 0 c0 -43 -1 -45 -30 -45 -27 0 -30 4 -33 33 -5 50 4 64 35 60 26 -3 28 -6 28 -48z m160 0 c0 -43 -1 -45 -32 -48 l-33 -3 0 51 0 51 33 -3 c31 -3 32 -5 32 -48z m170 0 c0 -43 -1 -45 -32 -48 -33 -3 -33 -3 -33 41 0 51 6 59 40 55 23 -3 25 -7 25 -48z m169 0 c1 -45 1 -45 -34 -45 -32 0 -35 3 -38 33 -5 51 3 64 39 60 30 -3 32 -5 33 -48z m161 0 c0 -43 -1 -45 -32 -48 -33 -3 -33 -3 -33 41 0 51 6 59 40 55 23 -3 25 -7 25 -48z m170 0 c0 -45 0 -45 -35 -45 -30 0 -35 3 -37 25 -1 14 0 35 3 48 4 19 10 23 37 20 31 -3 32 -5 32 -48z m165 -1 l0 -50 -32 3 c-29 3 -33 7 -36 36 -5 49 3 62 38 62 29 0 30 -1 30 -51z m165 1 c0 -43 -1 -45 -32 -48 l-33 -3 0 51 0 51 33 -3 c31 -3 32 -5 32 -48z m-5185 -485 l0 -415 -625 0 -625 0 0 415 0 415 625 0 625 0 0 -415z m1320 0 l0 -415 -625 0 -625 0 0 415 0 415 625 0 625 0 0 -415z m1320 0 l0 -415 -625 0 -625 0 0 415 0 415 625 0 625 0 0 -415z m1320 0 l0 -415 -625 0 -625 0 0 415 0 415 625 0 625 0 0 -415z m1308 -2 l2 -413 -620 0 -620 0 0 415 0 415 618 -2 617 -3 3 -412z m-7013 -493 c0 -43 -1 -45 -32 -48 -35 -3 -35 -3 -35 58 0 17 1 33 1 36 1 3 16 4 34 2 31 -3 32 -5 32 -48z m165 -1 l0 -50 -32 3 c-31 3 -33 5 -34 43 -1 51 1 55 37 55 28 0 29 -1 29 -51z m165 1 c0 -43 -1 -45 -32 -48 l-33 -3 0 51 0 51 33 -3 c31 -3 32 -5 32 -48z m160 0 c0 -43 -1 -45 -30 -45 -27 0 -30 4 -33 33 -5 50 4 64 35 60 26 -3 28 -6 28 -48z m163 3 c-3 -46 -4 -48 -33 -48 -29 0 -30 2 -33 48 l-3 47 36 0 36 0 -3 -47z m170 0 c-3 -46 -4 -48 -33 -48 -29 0 -30 2 -33 48 l-3 47 36 0 36 0 -3 -47z m162 -4 l0 -50 -32 3 c-29 3 -33 7 -36 36 -5 49 3 62 38 62 29 0 30 -1 30 -51z m168 4 c-3 -46 -4 -48 -33 -48 -29 0 -30 2 -33 48 l-3 47 36 0 36 0 -3 -47z m167 -3 c0 -43 -1 -45 -31 -48 -36 -3 -44 12 -36 67 4 29 7 32 36 29 30 -3 31 -5 31 -48z m165 -1 l0 -50 -32 3 c-29 3 -33 7 -36 36 -5 49 3 62 38 62 29 0 30 -1 30 -51z m165 1 c0 -43 -1 -45 -32 -48 l-33 -3 0 51 0 51 33 -3 c31 -3 32 -5 32 -48z m160 0 c0 -43 -1 -45 -30 -45 -27 0 -30 4 -33 33 -5 50 4 64 35 60 26 -3 28 -6 28 -48z m163 3 c-3 -46 -4 -48 -33 -48 -29 0 -30 2 -33 48 l-3 47 36 0 36 0 -3 -47z m167 -3 c0 -43 -1 -45 -30 -45 -29 0 -30 2 -33 48 l-3 48 33 -3 c32 -3 33 -4 33 -48z m168 13 c-2 -66 -1 -64 -35 -61 -29 3 -33 7 -36 36 -5 51 3 64 40 60 29 -3 32 -6 31 -35z m162 -13 c0 -43 -1 -45 -30 -45 -29 0 -30 2 -33 48 l-3 48 33 -3 c32 -3 33 -4 33 -48z m170 0 c0 -42 -2 -45 -29 -48 -33 -4 -46 10 -46 54 0 39 7 46 45 42 29 -3 30 -5 30 -48z m165 -1 l0 -50 -32 3 c-29 3 -33 7 -36 36 -5 49 3 62 38 62 29 0 30 -1 30 -51z m165 1 c0 -43 -1 -45 -30 -45 -29 0 -30 2 -33 48 l-3 48 33 -3 c32 -3 33 -4 33 -48z m160 0 c0 -43 -1 -45 -30 -45 -27 0 -30 4 -33 33 -5 50 4 64 35 60 26 -3 28 -6 28 -48z m163 3 c-3 -46 -4 -48 -33 -48 -29 0 -30 2 -33 48 l-3 47 36 0 36 0 -3 -47z m170 0 c-3 -46 -4 -48 -33 -48 -29 0 -30 2 -33 48 l-3 47 36 0 36 0 -3 -47z m162 -4 l0 -50 -32 3 c-29 3 -33 7 -36 36 -5 49 3 62 38 62 29 0 30 -1 30 -51z m165 1 c0 -43 -1 -45 -30 -45 -29 0 -30 2 -33 48 l-3 48 33 -3 c32 -3 33 -4 33 -48z m170 0 c0 -43 -1 -45 -32 -48 -35 -3 -34 -5 -38 58 -2 36 3 41 38 38 31 -3 32 -5 32 -48z m165 -1 l0 -50 -32 3 c-29 3 -33 7 -36 36 -5 49 3 62 38 62 29 0 30 -1 30 -51z m165 1 c0 -43 -1 -45 -32 -48 l-33 -3 0 51 0 51 33 -3 c31 -3 32 -5 32 -48z m160 0 c0 -43 -1 -45 -30 -45 -27 0 -30 4 -33 33 -5 50 4 64 35 60 26 -3 28 -6 28 -48z m160 0 c0 -43 -1 -45 -30 -45 -29 0 -30 2 -33 48 l-3 48 33 -3 c32 -3 33 -4 33 -48z m170 0 c0 -43 -1 -45 -30 -45 -29 0 -30 2 -33 48 l-3 48 33 -3 c32 -3 33 -4 33 -48z m168 38 c-2 -5 -3 -26 -3 -49 0 -39 -1 -40 -32 -37 -29 3 -33 7 -36 36 -5 52 3 64 40 60 18 -2 32 -6 31 -10z m162 -38 c0 -43 -1 -45 -30 -45 -29 0 -30 2 -33 48 l-3 48 33 -3 c32 -3 33 -4 33 -48z m170 0 c0 -43 -1 -45 -32 -48 -33 -3 -35 -1 -35 38 0 60 1 61 35 58 31 -3 32 -5 32 -48z m165 -1 l0 -50 -32 3 c-29 3 -33 7 -36 36 -5 49 3 62 38 62 29 0 30 -1 30 -51z m165 1 c0 -43 -1 -45 -32 -48 l-33 -3 0 51 0 51 33 -3 c31 -3 32 -5 32 -48z m160 0 c0 -43 -1 -45 -30 -45 -27 0 -30 4 -33 33 -5 50 4 64 35 60 26 -3 28 -6 28 -48z m163 3 c-3 -46 -4 -48 -33 -48 -29 0 -30 2 -33 48 l-3 47 36 0 36 0 -3 -47z m170 0 c-3 -46 -4 -48 -33 -48 -29 0 -30 2 -33 48 l-3 47 36 0 36 0 -3 -47z m162 -4 l0 -50 -32 3 c-29 3 -33 7 -36 36 -5 49 3 62 38 62 29 0 30 -1 30 -51z m168 4 c-3 -46 -4 -48 -33 -48 -29 0 -30 2 -33 48 l-3 47 36 0 36 0 -3 -47z m167 -3 c0 -42 -2 -45 -29 -48 -33 -4 -46 10 -46 54 0 39 7 46 45 42 29 -3 30 -5 30 -48z m165 -1 l0 -50 -32 3 c-29 3 -33 7 -36 36 -5 49 3 62 38 62 29 0 30 -1 30 -51z m165 1 c0 -43 -1 -45 -32 -48 l-33 -3 0 51 0 51 33 -3 c31 -3 32 -5 32 -48z"/>
<path d="M9235 5832 c-64 -13 -88 -100 -40 -147 34 -35 93 -34 125 0 60 63 1 164 -85 147z"/>
<path d="M8953 5663 c-32 -6 -63 -50 -63 -90 0 -48 37 -83 88 -83 97 0 122 137 31 169 -18 6 -32 10 -33 10 -1 -1 -11 -4 -23 -6z"/>
<path d="M9433 5585 c-89 -38 -62 -165 36 -165 32 0 44 6 65 31 48 57 25 117 -55 142 -8 3 -29 -1 -46 -8z"/>
<path d="M8949 5321 c-20 -20 -29 -39 -29 -61 0 -22 9 -41 29 -61 20 -20 39 -29 61 -29 22 0 41 9 61 29 20 20 29 39 29 61 0 22 -9 41 -29 61 -20 20 -39 29 -61 29 -22 0 -41 -9 -61 -29z"/>
<path d="M9280 5265 c-53 -56 -15 -145 62 -145 52 0 88 35 88 85 0 77 -97 116 -150 60z"/>
<path d="M11182 5450 c-48 -45 -16 -123 50 -123 64 0 92 83 42 122 -34 27 -64 27 -92 1z"/>
<path d="M10951 5304 c-12 -15 -21 -34 -21 -44 0 -10 9 -29 21 -44 41 -52 122 -23 122 44 0 67 -81 96 -122 44z"/>
<path d="M11373 5270 c-46 -19 -57 -83 -20 -118 30 -28 68 -28 95 1 54 57 -3 145 -75 117z"/>
<path d="M10986 5059 c-19 -15 -26 -30 -26 -54 0 -36 36 -75 70 -75 34 0 70 39 70 75 0 36 -36 75 -70 75 -10 0 -29 -9 -44 -21z"/>
<path d="M11250 5010 c-43 -43 -11 -120 50 -120 38 0 70 32 70 70 0 38 -32 70 -70 70 -17 0 -39 -9 -50 -20z"/>
</g>
</svg>
